0
SECTION
2
ENTITIES
0
LWPOLYLINE
8
FOOTPRINT
90
96
70
1
10
546.0000
20
120.0000
10
545.9420
20
125.0261
10
545.7681
20
127.5468
10
545.4780
20
129.5594
10
545.0714
20
131.2887
10
544.5479
20
132.8233
10
543.9068
20
134.2086
10
543.1472
20
135.4715
10
542.2679
20
136.6289
10
541.2675
20
137.6924
10
540.1440
20
138.6700
10
538.8947
20
139.5675
10
537.5163
20
140.3893
10
536.0043
20
141.1384
10
534.3528
20
141.8174
10
532.5540
20
142.4280
10
530.5972
20
142.9717
10
528.4675
20
143.4496
10
526.1438
20
143.8624
10
523.5948
20
144.2108
10
520.7712
20
144.4953
10
517.5893
20
144.7163
10
513.8861
20
144.8740
10
509.2481
20
144.9685
10
500.0000
20
145.0000
10
490.7519
20
144.9685
10
486.1139
20
144.8740
10
482.4107
20
144.7163
10
479.2288
20
144.4953
10
476.4052
20
144.2108
10
473.8562
20
143.8624
10
471.5325
20
143.4496
10
469.4028
20
142.9717
10
467.4460
20
142.4280
10
465.6472
20
141.8174
10
463.9957
20
141.1384
10
462.4837
20
140.3893
10
461.1053
20
139.5675
10
459.8560
20
138.6700
10
458.7325
20
137.6924
10
457.7321
20
136.6289
10
456.8528
20
135.4715
10
456.0932
20
134.2086
10
455.4521
20
132.8233
10
454.9286
20
131.2887
10
454.5220
20
129.5594
10
454.2319
20
127.5468
10
454.0580
20
125.0261
10
454.0000
20
120.0000
10
454.0580
20
114.9739
10
454.2319
20
112.4532
10
454.5220
20
110.4406
10
454.9286
20
108.7113
10
455.4521
20
107.1767
10
456.0932
20
105.7914
10
456.8528
20
104.5285
10
457.7321
20
103.3711
10
458.7325
20
102.3076
10
459.8560
20
101.3300
10
461.1053
20
100.4325
10
462.4837
20
99.6107
10
463.9957
20
98.8616
10
465.6472
20
98.1826
10
467.4460
20
97.5720
10
469.4028
20
97.0283
10
471.5325
20
96.5504
10
473.8562
20
96.1376
10
476.4052
20
95.7892
10
479.2288
20
95.5047
10
482.4107
20
95.2837
10
486.1139
20
95.1260
10
490.7519
20
95.0315
10
500.0000
20
95.0000
10
509.2481
20
95.0315
10
513.8861
20
95.1260
10
517.5893
20
95.2837
10
520.7712
20
95.5047
10
523.5948
20
95.7892
10
526.1438
20
96.1376
10
528.4675
20
96.5504
10
530.5972
20
97.0283
10
532.5540
20
97.5720
10
534.3528
20
98.1826
10
536.0043
20
98.8616
10
537.5163
20
99.6107
10
538.8947
20
100.4325
10
540.1440
20
101.3300
10
541.2675
20
102.3076
10
542.2679
20
103.3711
10
543.1472
20
104.5285
10
543.9068
20
105.7914
10
544.5479
20
107.1767
10
545.0714
20
108.7113
10
545.4780
20
110.4406
10
545.7681
20
112.4532
10
545.9420
20
114.9739
0
ENDSEC
0
EOF
