0
SECTION
2
ENTITIES
0
LINE
8
T
10
5.0
20
-70.0
11
45.0
21
-70.0
0
LINE
8
T
10
45.0
20
-70.0
11
45.0
21
-20.0
0
LINE
8
T
10
45.0
20
-20.0
11
5.0
21
-20.0
0
LINE
8
T
10
5.0
20
-20.0
11
5.0
21
-70.0
0
LINE
8
T
10
55.0
20
-70.0
11
95.0
21
-70.0
0
LINE
8
T
10
95.0
20
-70.0
11
95.0
21
-20.0
0
LINE
8
T
10
95.0
20
-20.0
11
55.0
21
-20.0
0
LINE
8
T
10
55.0
20
-20.0
11
55.0
21
-70.0
0
LINE
8
T
10
105.0
20
-70.0
11
145.0
21
-70.0
0
LINE
8
T
10
145.0
20
-70.0
11
145.0
21
-20.0
0
LINE
8
T
10
145.0
20
-20.0
11
105.0
21
-20.0
0
LINE
8
T
10
105.0
20
-20.0
11
105.0
21
-70.0
0
LINE
8
T
10
155.0
20
-70.0
11
195.0
21
-70.0
0
LINE
8
T
10
195.0
20
-70.0
11
195.0
21
-20.0
0
LINE
8
T
10
195.0
20
-20.0
11
155.0
21
-20.0
0
LINE
8
T
10
155.0
20
-20.0
11
155.0
21
-70.0
0
LINE
8
T
10
205.0
20
-70.0
11
245.0
21
-70.0
0
LINE
8
T
10
245.0
20
-70.0
11
245.0
21
-20.0
0
LINE
8
T
10
245.0
20
-20.0
11
205.0
21
-20.0
0
LINE
8
T
10
205.0
20
-20.0
11
205.0
21
-70.0
0
LINE
8
T
10
255.0
20
-70.0
11
295.0
21
-70.0
0
LINE
8
T
10
295.0
20
-70.0
11
295.0
21
-20.0
0
LINE
8
T
10
295.0
20
-20.0
11
255.0
21
-20.0
0
LINE
8
T
10
255.0
20
-20.0
11
255.0
21
-70.0
0
LINE
8
T
10
305.0
20
-70.0
11
345.0
21
-70.0
0
LINE
8
T
10
345.0
20
-70.0
11
345.0
21
-20.0
0
LINE
8
T
10
345.0
20
-20.0
11
305.0
21
-20.0
0
LINE
8
T
10
305.0
20
-20.0
11
305.0
21
-70.0
0
LINE
8
T
10
355.0
20
-70.0
11
395.0
21
-70.0
0
LINE
8
T
10
395.0
20
-70.0
11
395.0
21
-20.0
0
LINE
8
T
10
395.0
20
-20.0
11
355.0
21
-20.0
0
LINE
8
T
10
355.0
20
-20.0
11
355.0
21
-70.0
0
LINE
8
T
10
405.0
20
-70.0
11
445.0
21
-70.0
0
LINE
8
T
10
445.0
20
-70.0
11
445.0
21
-20.0
0
LINE
8
T
10
445.0
20
-20.0
11
405.0
21
-20.0
0
LINE
8
T
10
405.0
20
-20.0
11
405.0
21
-70.0
0
LINE
8
T
10
455.0
20
-70.0
11
495.0
21
-70.0
0
LINE
8
T
10
495.0
20
-70.0
11
495.0
21
-20.0
0
LINE
8
T
10
495.0
20
-20.0
11
455.0
21
-20.0
0
LINE
8
T
10
455.0
20
-20.0
11
455.0
21
-70.0
0
LINE
8
T
10
505.0
20
-70.0
11
545.0
21
-70.0
0
LINE
8
T
10
545.0
20
-70.0
11
545.0
21
-20.0
0
LINE
8
T
10
545.0
20
-20.0
11
505.0
21
-20.0
0
LINE
8
T
10
505.0
20
-20.0
11
505.0
21
-70.0
0
LINE
8
T
10
555.0
20
-70.0
11
595.0
21
-70.0
0
LINE
8
T
10
595.0
20
-70.0
11
595.0
21
-20.0
0
LINE
8
T
10
595.0
20
-20.0
11
555.0
21
-20.0
0
LINE
8
T
10
555.0
20
-20.0
11
555.0
21
-70.0
0
LINE
8
T
10
5.0
20
20.0
11
45.0
21
20.0
0
LINE
8
T
10
45.0
20
20.0
11
45.0
21
70.0
0
LINE
8
T
10
45.0
20
70.0
11
5.0
21
70.0
0
LINE
8
T
10
5.0
20
70.0
11
5.0
21
20.0
0
LINE
8
T
10
55.0
20
20.0
11
95.0
21
20.0
0
LINE
8
T
10
95.0
20
20.0
11
95.0
21
70.0
0
LINE
8
T
10
95.0
20
70.0
11
55.0
21
70.0
0
LINE
8
T
10
55.0
20
70.0
11
55.0
21
20.0
0
LINE
8
T
10
105.0
20
20.0
11
145.0
21
20.0
0
LINE
8
T
10
145.0
20
20.0
11
145.0
21
70.0
0
LINE
8
T
10
145.0
20
70.0
11
105.0
21
70.0
0
LINE
8
T
10
105.0
20
70.0
11
105.0
21
20.0
0
LINE
8
T
10
155.0
20
20.0
11
195.0
21
20.0
0
LINE
8
T
10
195.0
20
20.0
11
195.0
21
70.0
0
LINE
8
T
10
195.0
20
70.0
11
155.0
21
70.0
0
LINE
8
T
10
155.0
20
70.0
11
155.0
21
20.0
0
LINE
8
T
10
205.0
20
20.0
11
245.0
21
20.0
0
LINE
8
T
10
245.0
20
20.0
11
245.0
21
70.0
0
LINE
8
T
10
245.0
20
70.0
11
205.0
21
70.0
0
LINE
8
T
10
205.0
20
70.0
11
205.0
21
20.0
0
LINE
8
T
10
255.0
20
20.0
11
295.0
21
20.0
0
LINE
8
T
10
295.0
20
20.0
11
295.0
21
70.0
0
LINE
8
T
10
295.0
20
70.0
11
255.0
21
70.0
0
LINE
8
T
10
255.0
20
70.0
11
255.0
21
20.0
0
LINE
8
T
10
305.0
20
20.0
11
345.0
21
20.0
0
LINE
8
T
10
345.0
20
20.0
11
345.0
21
70.0
0
LINE
8
T
10
345.0
20
70.0
11
305.0
21
70.0
0
LINE
8
T
10
305.0
20
70.0
11
305.0
21
20.0
0
LINE
8
T
10
355.0
20
20.0
11
395.0
21
20.0
0
LINE
8
T
10
395.0
20
20.0
11
395.0
21
70.0
0
LINE
8
T
10
395.0
20
70.0
11
355.0
21
70.0
0
LINE
8
T
10
355.0
20
70.0
11
355.0
21
20.0
0
LINE
8
T
10
405.0
20
20.0
11
445.0
21
20.0
0
LINE
8
T
10
445.0
20
20.0
11
445.0
21
70.0
0
LINE
8
T
10
445.0
20
70.0
11
405.0
21
70.0
0
LINE
8
T
10
405.0
20
70.0
11
405.0
21
20.0
0
LINE
8
T
10
455.0
20
20.0
11
495.0
21
20.0
0
LINE
8
T
10
495.0
20
20.0
11
495.0
21
70.0
0
LINE
8
T
10
495.0
20
70.0
11
455.0
21
70.0
0
LINE
8
T
10
455.0
20
70.0
11
455.0
21
20.0
0
LINE
8
T
10
505.0
20
20.0
11
545.0
21
20.0
0
LINE
8
T
10
545.0
20
20.0
11
545.0
21
70.0
0
LINE
8
T
10
545.0
20
70.0
11
505.0
21
70.0
0
LINE
8
T
10
505.0
20
70.0
11
505.0
21
20.0
0
LINE
8
T
10
555.0
20
20.0
11
595.0
21
20.0
0
LINE
8
T
10
595.0
20
20.0
11
595.0
21
70.0
0
LINE
8
T
10
595.0
20
70.0
11
555.0
21
70.0
0
LINE
8
T
10
555.0
20
70.0
11
555.0
21
20.0
0
LINE
8
T
10
45.0
20
-57.0
11
55.0
21
-47.0
0
LINE
8
T
10
45.0
20
-47.0
11
55.0
21
-37.0
0
LINE
8
T
10
95.0
20
-57.0
11
105.0
21
-47.0
0
LINE
8
T
10
95.0
20
-47.0
11
105.0
21
-37.0
0
LINE
8
T
10
145.0
20
-57.0
11
155.0
21
-47.0
0
LINE
8
T
10
145.0
20
-47.0
11
155.0
21
-37.0
0
LINE
8
T
10
195.0
20
-57.0
11
205.0
21
-47.0
0
LINE
8
T
10
195.0
20
-47.0
11
205.0
21
-37.0
0
LINE
8
T
10
245.0
20
-57.0
11
255.0
21
-47.0
0
LINE
8
T
10
245.0
20
-47.0
11
255.0
21
-37.0
0
LINE
8
T
10
295.0
20
-57.0
11
305.0
21
-47.0
0
LINE
8
T
10
295.0
20
-47.0
11
305.0
21
-37.0
0
LINE
8
T
10
345.0
20
-57.0
11
355.0
21
-47.0
0
LINE
8
T
10
345.0
20
-47.0
11
355.0
21
-37.0
0
LINE
8
T
10
395.0
20
-57.0
11
405.0
21
-47.0
0
LINE
8
T
10
395.0
20
-47.0
11
405.0
21
-37.0
0
LINE
8
T
10
445.0
20
-57.0
11
455.0
21
-47.0
0
LINE
8
T
10
445.0
20
-47.0
11
455.0
21
-37.0
0
LINE
8
T
10
495.0
20
-57.0
11
505.0
21
-47.0
0
LINE
8
T
10
495.0
20
-47.0
11
505.0
21
-37.0
0
LINE
8
T
10
545.0
20
-57.0
11
555.0
21
-47.0
0
LINE
8
T
10
545.0
20
-47.0
11
555.0
21
-37.0
0
ENDSEC
0
EOF
