0
SECTION
2
TABLES
0
TABLE
2
LAYER
70
3
0
LAYER
100
AcDbSymbolTableRecord
100
AcDbLayerTableRecord
2
0
70
0
62
7
6
CONTINUOUS
0
LAYER
100
AcDbSymbolTableRecord
100
AcDbLayerTableRecord
2
TREAD
70
0
62
7
6
CONTINUOUS
0
LAYER
100
AcDbSymbolTableRecord
100
AcDbLayerTableRecord
2
TIEBAR
70
0
62
6
6
CONTINUOUS
0
ENDTAB
0
ENDSEC
0
SECTION
2
ENTITIES
0
LINE
8
TREAD
10
2.000000
20
-100.000000
11
58.000000
21
-100.000000
0
LINE
8
TREAD
10
58.000000
20
-100.000000
11
58.000000
21
-4.000000
0
LINE
8
TREAD
10
58.000000
20
-4.000000
11
2.000000
21
-4.000000
0
LINE
8
TREAD
10
2.000000
20
-4.000000
11
2.000000
21
-100.000000
0
LINE
8
TREAD
10
2.000000
20
4.000000
11
58.000000
21
4.000000
0
LINE
8
TREAD
10
58.000000
20
4.000000
11
58.000000
21
100.000000
0
LINE
8
TREAD
10
58.000000
20
100.000000
11
2.000000
21
100.000000
0
LINE
8
TREAD
10
2.000000
20
100.000000
11
2.000000
21
4.000000
0
LINE
8
TREAD
10
20.000000
20
-4.000000
11
20.000000
21
4.000000
0
LINE
8
TREAD
10
40.000000
20
-4.000000
11
40.000000
21
4.000000
0
HATCH
100
AcDbEntity
8
TIEBAR
62
30
100
AcDbHatch
10
0.0
20
0.0
30
0.0
210
0.0
220
0.0
230
1.0
2
SOLID
70
1
71
0
91
1
92
3
72
0
73
1
93
4
10
20.000000
20
-4.000000
10
40.000000
20
-4.000000
10
40.000000
20
4.000000
10
20.000000
20
4.000000
97
0
75
0
76
1
98
0
0
ENDSEC
0
EOF
