0
SECTION
2
TABLES
0
TABLE
2
LAYER
70
3
0
LAYER
100
AcDbSymbolTableRecord
100
AcDbLayerTableRecord
2
0
70
0
62
7
6
CONTINUOUS
0
LAYER
100
AcDbSymbolTableRecord
100
AcDbLayerTableRecord
2
TREAD
70
0
62
7
6
CONTINUOUS
0
LAYER
100
AcDbSymbolTableRecord
100
AcDbLayerTableRecord
2
TIEBAR
70
0
62
6
6
CONTINUOUS
0
ENDTAB
0
ENDSEC
0
SECTION
2
ENTITIES
0
LINE
8
TREAD
10
3.000000
20
-100.000000
11
57.000000
21
-100.000000
0
LINE
8
TREAD
10
57.000000
20
-100.000000
11
57.000000
21
-56.000000
0
LINE
8
TREAD
10
57.000000
20
-56.000000
11
3.000000
21
-56.000000
0
LINE
8
TREAD
10
3.000000
20
-56.000000
11
3.000000
21
-100.000000
0
LINE
8
TREAD
10
63.000000
20
-100.000000
11
117.000000
21
-100.000000
0
LINE
8
TREAD
10
117.000000
20
-100.000000
11
117.000000
21
-56.000000
0
LINE
8
TREAD
10
117.000000
20
-56.000000
11
63.000000
21
-56.000000
0
LINE
8
TREAD
10
63.000000
20
-56.000000
11
63.000000
21
-100.000000
0
LINE
8
TREAD
10
123.000000
20
-100.000000
11
177.000000
21
-100.000000
0
LINE
8
TREAD
10
177.000000
20
-100.000000
11
177.000000
21
-56.000000
0
LINE
8
TREAD
10
177.000000
20
-56.000000
11
123.000000
21
-56.000000
0
LINE
8
TREAD
10
123.000000
20
-56.000000
11
123.000000
21
-100.000000
0
LINE
8
TREAD
10
183.000000
20
-100.000000
11
237.000000
21
-100.000000
0
LINE
8
TREAD
10
237.000000
20
-100.000000
11
237.000000
21
-56.000000
0
LINE
8
TREAD
10
237.000000
20
-56.000000
11
183.000000
21
-56.000000
0
LINE
8
TREAD
10
183.000000
20
-56.000000
11
183.000000
21
-100.000000
0
LINE
8
TREAD
10
243.000000
20
-100.000000
11
297.000000
21
-100.000000
0
LINE
8
TREAD
10
297.000000
20
-100.000000
11
297.000000
21
-56.000000
0
LINE
8
TREAD
10
297.000000
20
-56.000000
11
243.000000
21
-56.000000
0
LINE
8
TREAD
10
243.000000
20
-56.000000
11
243.000000
21
-100.000000
0
LINE
8
TREAD
10
303.000000
20
-100.000000
11
357.000000
21
-100.000000
0
LINE
8
TREAD
10
357.000000
20
-100.000000
11
357.000000
21
-56.000000
0
LINE
8
TREAD
10
357.000000
20
-56.000000
11
303.000000
21
-56.000000
0
LINE
8
TREAD
10
303.000000
20
-56.000000
11
303.000000
21
-100.000000
0
LINE
8
TREAD
10
363.000000
20
-100.000000
11
417.000000
21
-100.000000
0
LINE
8
TREAD
10
417.000000
20
-100.000000
11
417.000000
21
-56.000000
0
LINE
8
TREAD
10
417.000000
20
-56.000000
11
363.000000
21
-56.000000
0
LINE
8
TREAD
10
363.000000
20
-56.000000
11
363.000000
21
-100.000000
0
LINE
8
TREAD
10
423.000000
20
-100.000000
11
477.000000
21
-100.000000
0
LINE
8
TREAD
10
477.000000
20
-100.000000
11
477.000000
21
-56.000000
0
LINE
8
TREAD
10
477.000000
20
-56.000000
11
423.000000
21
-56.000000
0
LINE
8
TREAD
10
423.000000
20
-56.000000
11
423.000000
21
-100.000000
0
LINE
8
TREAD
10
3.000000
20
-48.000000
11
57.000000
21
-48.000000
0
LINE
8
TREAD
10
57.000000
20
-48.000000
11
57.000000
21
-4.000000
0
LINE
8
TREAD
10
57.000000
20
-4.000000
11
3.000000
21
-4.000000
0
LINE
8
TREAD
10
3.000000
20
-4.000000
11
3.000000
21
-48.000000
0
LINE
8
TREAD
10
63.000000
20
-48.000000
11
117.000000
21
-48.000000
0
LINE
8
TREAD
10
117.000000
20
-48.000000
11
117.000000
21
-4.000000
0
LINE
8
TREAD
10
117.000000
20
-4.000000
11
63.000000
21
-4.000000
0
LINE
8
TREAD
10
63.000000
20
-4.000000
11
63.000000
21
-48.000000
0
LINE
8
TREAD
10
123.000000
20
-48.000000
11
177.000000
21
-48.000000
0
LINE
8
TREAD
10
177.000000
20
-48.000000
11
177.000000
21
-4.000000
0
LINE
8
TREAD
10
177.000000
20
-4.000000
11
123.000000
21
-4.000000
0
LINE
8
TREAD
10
123.000000
20
-4.000000
11
123.000000
21
-48.000000
0
LINE
8
TREAD
10
183.000000
20
-48.000000
11
237.000000
21
-48.000000
0
LINE
8
TREAD
10
237.000000
20
-48.000000
11
237.000000
21
-4.000000
0
LINE
8
TREAD
10
237.000000
20
-4.000000
11
183.000000
21
-4.000000
0
LINE
8
TREAD
10
183.000000
20
-4.000000
11
183.000000
21
-48.000000
0
LINE
8
TREAD
10
243.000000
20
-48.000000
11
297.000000
21
-48.000000
0
LINE
8
TREAD
10
297.000000
20
-48.000000
11
297.000000
21
-4.000000
0
LINE
8
TREAD
10
297.000000
20
-4.000000
11
243.000000
21
-4.000000
0
LINE
8
TREAD
10
243.000000
20
-4.000000
11
243.000000
21
-48.000000
0
LINE
8
TREAD
10
303.000000
20
-48.000000
11
357.000000
21
-48.000000
0
LINE
8
TREAD
10
357.000000
20
-48.000000
11
357.000000
21
-4.000000
0
LINE
8
TREAD
10
357.000000
20
-4.000000
11
303.000000
21
-4.000000
0
LINE
8
TREAD
10
303.000000
20
-4.000000
11
303.000000
21
-48.000000
0
LINE
8
TREAD
10
363.000000
20
-48.000000
11
417.000000
21
-48.000000
0
LINE
8
TREAD
10
417.000000
20
-48.000000
11
417.000000
21
-4.000000
0
LINE
8
TREAD
10
417.000000
20
-4.000000
11
363.000000
21
-4.000000
0
LINE
8
TREAD
10
363.000000
20
-4.000000
11
363.000000
21
-48.000000
0
LINE
8
TREAD
10
423.000000
20
-48.000000
11
477.000000
21
-48.000000
0
LINE
8
TREAD
10
477.000000
20
-48.000000
11
477.000000
21
-4.000000
0
LINE
8
TREAD
10
477.000000
20
-4.000000
11
423.000000
21
-4.000000
0
LINE
8
TREAD
10
423.000000
20
-4.000000
11
423.000000
21
-48.000000
0
LINE
8
TREAD
10
3.000000
20
4.000000
11
57.000000
21
4.000000
0
LINE
8
TREAD
10
57.000000
20
4.000000
11
57.000000
21
48.000000
0
LINE
8
TREAD
10
57.000000
20
48.000000
11
3.000000
21
48.000000
0
LINE
8
TREAD
10
3.000000
20
48.000000
11
3.000000
21
4.000000
0
LINE
8
TREAD
10
63.000000
20
4.000000
11
117.000000
21
4.000000
0
LINE
8
TREAD
10
117.000000
20
4.000000
11
117.000000
21
48.000000
0
LINE
8
TREAD
10
117.000000
20
48.000000
11
63.000000
21
48.000000
0
LINE
8
TREAD
10
63.000000
20
48.000000
11
63.000000
21
4.000000
0
LINE
8
TREAD
10
123.000000
20
4.000000
11
177.000000
21
4.000000
0
LINE
8
TREAD
10
177.000000
20
4.000000
11
177.000000
21
48.000000
0
LINE
8
TREAD
10
177.000000
20
48.000000
11
123.000000
21
48.000000
0
LINE
8
TREAD
10
123.000000
20
48.000000
11
123.000000
21
4.000000
0
LINE
8
TREAD
10
183.000000
20
4.000000
11
237.000000
21
4.000000
0
LINE
8
TREAD
10
237.000000
20
4.000000
11
237.000000
21
48.000000
0
LINE
8
TREAD
10
237.000000
20
48.000000
11
183.000000
21
48.000000
0
LINE
8
TREAD
10
183.000000
20
48.000000
11
183.000000
21
4.000000
0
LINE
8
TREAD
10
243.000000
20
4.000000
11
297.000000
21
4.000000
0
LINE
8
TREAD
10
297.000000
20
4.000000
11
297.000000
21
48.000000
0
LINE
8
TREAD
10
297.000000
20
48.000000
11
243.000000
21
48.000000
0
LINE
8
TREAD
10
243.000000
20
48.000000
11
243.000000
21
4.000000
0
LINE
8
TREAD
10
303.000000
20
4.000000
11
357.000000
21
4.000000
0
LINE
8
TREAD
10
357.000000
20
4.000000
11
357.000000
21
48.000000
0
LINE
8
TREAD
10
357.000000
20
48.000000
11
303.000000
21
48.000000
0
LINE
8
TREAD
10
303.000000
20
48.000000
11
303.000000
21
4.000000
0
LINE
8
TREAD
10
363.000000
20
4.000000
11
417.000000
21
4.000000
0
LINE
8
TREAD
10
417.000000
20
4.000000
11
417.000000
21
48.000000
0
LINE
8
TREAD
10
417.000000
20
48.000000
11
363.000000
21
48.000000
0
LINE
8
TREAD
10
363.000000
20
48.000000
11
363.000000
21
4.000000
0
LINE
8
TREAD
10
423.000000
20
4.000000
11
477.000000
21
4.000000
0
LINE
8
TREAD
10
477.000000
20
4.000000
11
477.000000
21
48.000000
0
LINE
8
TREAD
10
477.000000
20
48.000000
11
423.000000
21
48.000000
0
LINE
8
TREAD
10
423.000000
20
48.000000
11
423.000000
21
4.000000
0
LINE
8
TREAD
10
3.000000
20
56.000000
11
57.000000
21
56.000000
0
LINE
8
TREAD
10
57.000000
20
56.000000
11
57.000000
21
100.000000
0
LINE
8
TREAD
10
57.000000
20
100.000000
11
3.000000
21
100.000000
0
LINE
8
TREAD
10
3.000000
20
100.000000
11
3.000000
21
56.000000
0
LINE
8
TREAD
10
63.000000
20
56.000000
11
117.000000
21
56.000000
0
LINE
8
TREAD
10
117.000000
20
56.000000
11
117.000000
21
100.000000
0
LINE
8
TREAD
10
117.000000
20
100.000000
11
63.000000
21
100.000000
0
LINE
8
TREAD
10
63.000000
20
100.000000
11
63.000000
21
56.000000
0
LINE
8
TREAD
10
123.000000
20
56.000000
11
177.000000
21
56.000000
0
LINE
8
TREAD
10
177.000000
20
56.000000
11
177.000000
21
100.000000
0
LINE
8
TREAD
10
177.000000
20
100.000000
11
123.000000
21
100.000000
0
LINE
8
TREAD
10
123.000000
20
100.000000
11
123.000000
21
56.000000
0
LINE
8
TREAD
10
183.000000
20
56.000000
11
237.000000
21
56.000000
0
LINE
8
TREAD
10
237.000000
20
56.000000
11
237.000000
21
100.000000
0
LINE
8
TREAD
10
237.000000
20
100.000000
11
183.000000
21
100.000000
0
LINE
8
TREAD
10
183.000000
20
100.000000
11
183.000000
21
56.000000
0
LINE
8
TREAD
10
243.000000
20
56.000000
11
297.000000
21
56.000000
0
LINE
8
TREAD
10
297.000000
20
56.000000
11
297.000000
21
100.000000
0
LINE
8
TREAD
10
297.000000
20
100.000000
11
243.000000
21
100.000000
0
LINE
8
TREAD
10
243.000000
20
100.000000
11
243.000000
21
56.000000
0
LINE
8
TREAD
10
303.000000
20
56.000000
11
357.000000
21
56.000000
0
LINE
8
TREAD
10
357.000000
20
56.000000
11
357.000000
21
100.000000
0
LINE
8
TREAD
10
357.000000
20
100.000000
11
303.000000
21
100.000000
0
LINE
8
TREAD
10
303.000000
20
100.000000
11
303.000000
21
56.000000
0
LINE
8
TREAD
10
363.000000
20
56.000000
11
417.000000
21
56.000000
0
LINE
8
TREAD
10
417.000000
20
56.000000
11
417.000000
21
100.000000
0
LINE
8
TREAD
10
417.000000
20
100.000000
11
363.000000
21
100.000000
0
LINE
8
TREAD
10
363.000000
20
100.000000
11
363.000000
21
56.000000
0
LINE
8
TREAD
10
423.000000
20
56.000000
11
477.000000
21
56.000000
0
LINE
8
TREAD
10
477.000000
20
56.000000
11
477.000000
21
100.000000
0
LINE
8
TREAD
10
477.000000
20
100.000000
11
423.000000
21
100.000000
0
LINE
8
TREAD
10
423.000000
20
100.000000
11
423.000000
21
56.000000
0
HATCH
100
AcDbEntity
8
TIEBAR
5
A000
100
AcDbHatch
10
0.0
20
0.0
30
0.0
210
0.0
220
0.0
230
1.0
2
SOLID
70
1
71
0
91
1
92
3
72
0
73
1
93
4
10
30.000000
20
-56.000000
10
54.000000
20
-56.000000
10
54.000000
20
-48.000000
10
30.000000
20
-48.000000
97
0
75
0
76
1
98
0
0
HATCH
100
AcDbEntity
8
TIEBAR
5
A001
62
30
100
AcDbHatch
10
0.0
20
0.0
30
0.0
210
0.0
220
0.0
230
1.0
2
SOLID
70
1
71
0
91
2
92
3
72
0
73
1
93
4
10
150.000000
20
-56.000000
10
174.000000
20
-56.000000
10
174.000000
20
-48.000000
10
150.000000
20
-48.000000
97
0
92
2
72
0
73
1
93
4
10
158.000000
20
-53.500000
10
166.000000
20
-53.500000
10
166.000000
20
-50.500000
10
158.000000
20
-50.500000
97
0
75
0
76
1
98
0
0
HATCH
100
AcDbEntity
8
TIEBAR
62
3
100
AcDbHatch
10
0.0
20
0.0
30
0.0
210
0.0
220
0.0
230
1.0
2
SOLID
70
1
71
0
91
1
92
1
93
4
72
1
10
270.000000
20
-56.000000
11
294.000000
21
-56.000000
72
1
10
294.000000
20
-56.000000
11
294.000000
21
-48.000000
72
1
10
294.000000
20
-48.000000
11
270.000000
21
-48.000000
72
1
10
270.000000
20
-48.000000
11
270.000000
21
-56.000000
97
0
75
0
76
1
98
0
0
HATCH
100
AcDbEntity
8
TIEBAR
420
2003199
100
AcDbHatch
10
0.0
20
0.0
30
0.0
210
0.0
220
0.0
230
1.0
2
SOLID
70
1
71
0
91
1
92
1
93
4
72
1
10
390.000000
20
-56.000000
11
414.000000
21
-56.000000
72
1
10
414.000000
20
-56.000000
11
414.000000
21
-48.000000
72
1
10
414.000000
20
-48.000000
11
390.000000
21
-48.000000
72
1
10
390.000000
20
-48.000000
11
390.000000
21
-56.000000
97
0
75
0
76
1
98
0
0
HATCH
100
AcDbEntity
8
TIEBAR
5
A004
100
AcDbHatch
10
0.0
20
0.0
30
0.0
210
0.0
220
0.0
230
1.0
2
SOLID
70
1
71
0
91
1
92
3
72
0
73
1
93
4
10
30.000000
20
-4.000000
10
54.000000
20
-4.000000
10
54.000000
20
4.000000
10
30.000000
20
4.000000
97
0
75
0
76
1
98
0
0
HATCH
100
AcDbEntity
8
TIEBAR
5
A005
62
30
100
AcDbHatch
10
0.0
20
0.0
30
0.0
210
0.0
220
0.0
230
1.0
2
SOLID
70
1
71
0
91
2
92
3
72
0
73
1
93
4
10
150.000000
20
-4.000000
10
174.000000
20
-4.000000
10
174.000000
20
4.000000
10
150.000000
20
4.000000
97
0
92
2
72
0
73
1
93
4
10
158.000000
20
-1.500000
10
166.000000
20
-1.500000
10
166.000000
20
1.500000
10
158.000000
20
1.500000
97
0
75
0
76
1
98
0
0
HATCH
100
AcDbEntity
8
TIEBAR
62
3
100
AcDbHatch
10
0.0
20
0.0
30
0.0
210
0.0
220
0.0
230
1.0
2
SOLID
70
1
71
0
91
1
92
1
93
4
72
1
10
270.000000
20
-4.000000
11
294.000000
21
-4.000000
72
1
10
294.000000
20
-4.000000
11
294.000000
21
4.000000
72
1
10
294.000000
20
4.000000
11
270.000000
21
4.000000
72
1
10
270.000000
20
4.000000
11
270.000000
21
-4.000000
97
0
75
0
76
1
98
0
0
HATCH
100
AcDbEntity
8
TIEBAR
420
2003199
100
AcDbHatch
10
0.0
20
0.0
30
0.0
210
0.0
220
0.0
230
1.0
2
SOLID
70
1
71
0
91
1
92
1
93
4
72
1
10
390.000000
20
-4.000000
11
414.000000
21
-4.000000
72
1
10
414.000000
20
-4.000000
11
414.000000
21
4.000000
72
1
10
414.000000
20
4.000000
11
390.000000
21
4.000000
72
1
10
390.000000
20
4.000000
11
390.000000
21
-4.000000
97
0
75
0
76
1
98
0
0
HATCH
100
AcDbEntity
8
TIEBAR
5
A008
100
AcDbHatch
10
0.0
20
0.0
30
0.0
210
0.0
220
0.0
230
1.0
2
SOLID
70
1
71
0
91
1
92
3
72
0
73
1
93
4
10
30.000000
20
48.000000
10
54.000000
20
48.000000
10
54.000000
20
56.000000
10
30.000000
20
56.000000
97
0
75
0
76
1
98
0
0
HATCH
100
AcDbEntity
8
TIEBAR
5
A009
62
30
100
AcDbHatch
10
0.0
20
0.0
30
0.0
210
0.0
220
0.0
230
1.0
2
SOLID
70
1
71
0
91
2
92
3
72
0
73
1
93
4
10
150.000000
20
48.000000
10
174.000000
20
48.000000
10
174.000000
20
56.000000
10
150.000000
20
56.000000
97
0
92
2
72
0
73
1
93
4
10
158.000000
20
50.500000
10
166.000000
20
50.500000
10
166.000000
20
53.500000
10
158.000000
20
53.500000
97
0
75
0
76
1
98
0
0
HATCH
100
AcDbEntity
8
TIEBAR
62
3
100
AcDbHatch
10
0.0
20
0.0
30
0.0
210
0.0
220
0.0
230
1.0
2
SOLID
70
1
71
0
91
1
92
1
93
4
72
1
10
270.000000
20
48.000000
11
294.000000
21
48.000000
72
1
10
294.000000
20
48.000000
11
294.000000
21
56.000000
72
1
10
294.000000
20
56.000000
11
270.000000
21
56.000000
72
1
10
270.000000
20
56.000000
11
270.000000
21
48.000000
97
0
75
0
76
1
98
0
0
HATCH
100
AcDbEntity
8
TIEBAR
420
2003199
100
AcDbHatch
10
0.0
20
0.0
30
0.0
210
0.0
220
0.0
230
1.0
2
SOLID
70
1
71
0
91
1
92
1
93
4
72
1
10
390.000000
20
48.000000
11
414.000000
21
48.000000
72
1
10
414.000000
20
48.000000
11
414.000000
21
56.000000
72
1
10
414.000000
20
56.000000
11
390.000000
21
56.000000
72
1
10
390.000000
20
56.000000
11
390.000000
21
48.000000
97
0
75
0
76
1
98
0
0
ENDSEC
0
EOF
