0
SECTION
2
TABLES
0
TABLE
2
LAYER
70
3
0
LAYER
100
AcDbSymbolTableRecord
100
AcDbLayerTableRecord
2
0
70
0
62
7
6
CONTINUOUS
0
LAYER
100
AcDbSymbolTableRecord
100
AcDbLayerTableRecord
2
TREAD
70
0
62
7
6
CONTINUOUS
0
LAYER
100
AcDbSymbolTableRecord
100
AcDbLayerTableRecord
2
TIEBAR
70
0
62
6
6
CONTINUOUS
0
ENDTAB
0
ENDSEC
0
SECTION
2
ENTITIES
0
LINE
8
TREAD
10
3.000000
20
-100.000000
11
57.000000
21
-100.000000
0
LINE
8
TREAD
10
57.000000
20
-100.000000
11
57.000000
21
-56.000000
0
LINE
8
TREAD
10
57.000000
20
-56.000000
11
3.000000
21
-56.000000
0
LINE
8
TREAD
10
3.000000
20
-56.000000
11
3.000000
21
-100.000000
0
LINE
8
TREAD
10
63.000000
20
-100.000000
11
117.000000
21
-100.000000
0
LINE
8
TREAD
10
117.000000
20
-100.000000
11
117.000000
21
-56.000000
0
LINE
8
TREAD
10
117.000000
20
-56.000000
11
63.000000
21
-56.000000
0
LINE
8
TREAD
10
63.000000
20
-56.000000
11
63.000000
21
-100.000000
0
LINE
8
TREAD
10
123.000000
20
-100.000000
11
177.000000
21
-100.000000
0
LINE
8
TREAD
10
177.000000
20
-100.000000
11
177.000000
21
-56.000000
0
LINE
8
TREAD
10
177.000000
20
-56.000000
11
123.000000
21
-56.000000
0
LINE
8
TREAD
10
123.000000
20
-56.000000
11
123.000000
21
-100.000000
0
LINE
8
TREAD
10
183.000000
20
-100.000000
11
237.000000
21
-100.000000
0
LINE
8
TREAD
10
237.000000
20
-100.000000
11
237.000000
21
-56.000000
0
LINE
8
TREAD
10
237.000000
20
-56.000000
11
183.000000
21
-56.000000
0
LINE
8
TREAD
10
183.000000
20
-56.000000
11
183.000000
21
-100.000000
0
LINE
8
TREAD
10
243.000000
20
-100.000000
11
297.000000
21
-100.000000
0
LINE
8
TREAD
10
297.000000
20
-100.000000
11
297.000000
21
-56.000000
0
LINE
8
TREAD
10
297.000000
20
-56.000000
11
243.000000
21
-56.000000
0
LINE
8
TREAD
10
243.000000
20
-56.000000
11
243.000000
21
-100.000000
0
LINE
8
TREAD
10
303.000000
20
-100.000000
11
357.000000
21
-100.000000
0
LINE
8
TREAD
10
357.000000
20
-100.000000
11
357.000000
21
-56.000000
0
LINE
8
TREAD
10
357.000000
20
-56.000000
11
303.000000
21
-56.000000
0
LINE
8
TREAD
10
303.000000
20
-56.000000
11
303.000000
21
-100.000000
0
LINE
8
TREAD
10
363.000000
20
-100.000000
11
417.000000
21
-100.000000
0
LINE
8
TREAD
10
417.000000
20
-100.000000
11
417.000000
21
-56.000000
0
LINE
8
TREAD
10
417.000000
20
-56.000000
11
363.000000
21
-56.000000
0
LINE
8
TREAD
10
363.000000
20
-56.000000
11
363.000000
21
-100.000000
0
LINE
8
TREAD
10
423.000000
20
-100.000000
11
477.000000
21
-100.000000
0
LINE
8
TREAD
10
477.000000
20
-100.000000
11
477.000000
21
-56.000000
0
LINE
8
TREAD
10
477.000000
20
-56.000000
11
423.000000
21
-56.000000
0
LINE
8
TREAD
10
423.000000
20
-56.000000
11
423.000000
21
-100.000000
0
LINE
8
TREAD
10
3.000000
20
-48.000000
11
57.000000
21
-48.000000
0
LINE
8
TREAD
10
57.000000
20
-48.000000
11
57.000000
21
-4.000000
0
LINE
8
TREAD
10
57.000000
20
-4.000000
11
3.000000
21
-4.000000
0
LINE
8
TREAD
10
3.000000
20
-4.000000
11
3.000000
21
-48.000000
0
LINE
8
TREAD
10
63.000000
20
-48.000000
11
117.000000
21
-48.000000
0
LINE
8
TREAD
10
117.000000
20
-48.000000
11
117.000000
21
-4.000000
0
LINE
8
TREAD
10
117.000000
20
-4.000000
11
63.000000
21
-4.000000
0
LINE
8
TREAD
10
63.000000
20
-4.000000
11
63.000000
21
-48.000000
0
LINE
8
TREAD
10
123.000000
20
-48.000000
11
177.000000
21
-48.000000
0
LINE
8
TREAD
10
177.000000
20
-48.000000
11
177.000000
21
-4.000000
0
LINE
8
TREAD
10
177.000000
20
-4.000000
11
123.000000
21
-4.000000
0
LINE
8
TREAD
10
123.000000
20
-4.000000
11
123.000000
21
-48.000000
0
LINE
8
TREAD
10
183.000000
20
-48.000000
11
237.000000
21
-48.000000
0
LINE
8
TREAD
10
237.000000
20
-48.000000
11
237.000000
21
-4.000000
0
LINE
8
TREAD
10
237.000000
20
-4.000000
11
183.000000
21
-4.000000
0
LINE
8
TREAD
10
183.000000
20
-4.000000
11
183.000000
21
-48.000000
0
LINE
8
TREAD
10
243.000000
20
-48.000000
11
297.000000
21
-48.000000
0
LINE
8
TREAD
10
297.000000
20
-48.000000
11
297.000000
21
-4.000000
0
LINE
8
TREAD
10
297.000000
20
-4.000000
11
243.000000
21
-4.000000
0
LINE
8
TREAD
10
243.000000
20
-4.000000
11
243.000000
21
-48.000000
0
LINE
8
TREAD
10
303.000000
20
-48.000000
11
357.000000
21
-48.000000
0
LINE
8
TREAD
10
357.000000
20
-48.000000
11
357.000000
21
-4.000000
0
LINE
8
TREAD
10
357.000000
20
-4.000000
11
303.000000
21
-4.000000
0
LINE
8
TREAD
10
303.000000
20
-4.000000
11
303.000000
21
-48.000000
0
LINE
8
TREAD
10
363.000000
20
-48.000000
11
417.000000
21
-48.000000
0
LINE
8
TREAD
10
417.000000
20
-48.000000
11
417.000000
21
-4.000000
0
LINE
8
TREAD
10
417.000000
20
-4.000000
11
363.000000
21
-4.000000
0
LINE
8
TREAD
10
363.000000
20
-4.000000
11
363.000000
21
-48.000000
0
LINE
8
TREAD
10
423.000000
20
-48.000000
11
477.000000
21
-48.000000
0
LINE
8
TREAD
10
477.000000
20
-48.000000
11
477.000000
21
-4.000000
0
LINE
8
TREAD
10
477.000000
20
-4.000000
11
423.000000
21
-4.000000
0
LINE
8
TREAD
10
423.000000
20
-4.000000
11
423.000000
21
-48.000000
0
LINE
8
TREAD
10
3.000000
20
4.000000
11
57.000000
21
4.000000
0
LINE
8
TREAD
10
57.000000
20
4.000000
11
57.000000
21
48.000000
0
LINE
8
TREAD
10
57.000000
20
48.000000
11
3.000000
21
48.000000
0
LINE
8
TREAD
10
3.000000
20
48.000000
11
3.000000
21
4.000000
0
LINE
8
TREAD
10
63.000000
20
4.000000
11
117.000000
21
4.000000
0
LINE
8
TREAD
10
117.000000
20
4.000000
11
117.000000
21
48.000000
0
LINE
8
TREAD
10
117.000000
20
48.000000
11
63.000000
21
48.000000
0
LINE
8
TREAD
10
63.000000
20
48.000000
11
63.000000
21
4.000000
0
LINE
8
TREAD
10
123.000000
20
4.000000
11
177.000000
21
4.000000
0
LINE
8
TREAD
10
177.000000
20
4.000000
11
177.000000
21
48.000000
0
LINE
8
TREAD
10
177.000000
20
48.000000
11
123.000000
21
48.000000
0
LINE
8
TREAD
10
123.000000
20
48.000000
11
123.000000
21
4.000000
0
LINE
8
TREAD
10
183.000000
20
4.000000
11
237.000000
21
4.000000
0
LINE
8
TREAD
10
237.000000
20
4.000000
11
237.000000
21
48.000000
0
LINE
8
TREAD
10
237.000000
20
48.000000
11
183.000000
21
48.000000
0
LINE
8
TREAD
10
183.000000
20
48.000000
11
183.000000
21
4.000000
0
LINE
8
TREAD
10
243.000000
20
4.000000
11
297.000000
21
4.000000
0
LINE
8
TREAD
10
297.000000
20
4.000000
11
297.000000
21
48.000000
0
LINE
8
TREAD
10
297.000000
20
48.000000
11
243.000000
21
48.000000
0
LINE
8
TREAD
10
243.000000
20
48.000000
11
243.000000
21
4.000000
0
LINE
8
TREAD
10
303.000000
20
4.000000
11
357.000000
21
4.000000
0
LINE
8
TREAD
10
357.000000
20
4.000000
11
357.000000
21
48.000000
0
LINE
8
TREAD
10
357.000000
20
48.000000
11
303.000000
21
48.000000
0
LINE
8
TREAD
10
303.000000
20
48.000000
11
303.000000
21
4.000000
0
LINE
8
TREAD
10
363.000000
20
4.000000
11
417.000000
21
4.000000
0
LINE
8
TREAD
10
417.000000
20
4.000000
11
417.000000
21
48.000000
0
LINE
8
TREAD
10
417.000000
20
48.000000
11
363.000000
21
48.000000
0
LINE
8
TREAD
10
363.000000
20
48.000000
11
363.000000
21
4.000000
0
LINE
8
TREAD
10
423.000000
20
4.000000
11
477.000000
21
4.000000
0
LINE
8
TREAD
10
477.000000
20
4.000000
11
477.000000
21
48.000000
0
LINE
8
TREAD
10
477.000000
20
48.000000
11
423.000000
21
48.000000
0
LINE
8
TREAD
10
423.000000
20
48.000000
11
423.000000
21
4.000000
0
LINE
8
TREAD
10
3.000000
20
56.000000
11
57.000000
21
56.000000
0
LINE
8
TREAD
10
57.000000
20
56.000000
11
57.000000
21
100.000000
0
LINE
8
TREAD
10
57.000000
20
100.000000
11
3.000000
21
100.000000
0
LINE
8
TREAD
10
3.000000
20
100.000000
11
3.000000
21
56.000000
0
LINE
8
TREAD
10
63.000000
20
56.000000
11
117.000000
21
56.000000
0
LINE
8
TREAD
10
117.000000
20
56.000000
11
117.000000
21
100.000000
0
LINE
8
TREAD
10
117.000000
20
100.000000
11
63.000000
21
100.000000
0
LINE
8
TREAD
10
63.000000
20
100.000000
11
63.000000
21
56.000000
0
LINE
8
TREAD
10
123.000000
20
56.000000
11
177.000000
21
56.000000
0
LINE
8
TREAD
10
177.000000
20
56.000000
11
177.000000
21
100.000000
0
LINE
8
TREAD
10
177.000000
20
100.000000
11
123.000000
21
100.000000
0
LINE
8
TREAD
10
123.000000
20
100.000000
11
123.000000
21
56.000000
0
LINE
8
TREAD
10
183.000000
20
56.000000
11
237.000000
21
56.000000
0
LINE
8
TREAD
10
237.000000
20
56.000000
11
237.000000
21
100.000000
0
LINE
8
TREAD
10
237.000000
20
100.000000
11
183.000000
21
100.000000
0
LINE
8
TREAD
10
183.000000
20
100.000000
11
183.000000
21
56.000000
0
LINE
8
TREAD
10
243.000000
20
56.000000
11
297.000000
21
56.000000
0
LINE
8
TREAD
10
297.000000
20
56.000000
11
297.000000
21
100.000000
0
LINE
8
TREAD
10
297.000000
20
100.000000
11
243.000000
21
100.000000
0
LINE
8
TREAD
10
243.000000
20
100.000000
11
243.000000
21
56.000000
0
LINE
8
TREAD
10
303.000000
20
56.000000
11
357.000000
21
56.000000
0
LINE
8
TREAD
10
357.000000
20
56.000000
11
357.000000
21
100.000000
0
LINE
8
TREAD
10
357.000000
20
100.000000
11
303.000000
21
100.000000
0
LINE
8
TREAD
10
303.000000
20
100.000000
11
303.000000
21
56.000000
0
LINE
8
TREAD
10
363.000000
20
56.000000
11
417.000000
21
56.000000
0
LINE
8
TREAD
10
417.000000
20
56.000000
11
417.000000
21
100.000000
0
LINE
8
TREAD
10
417.000000
20
100.000000
11
363.000000
21
100.000000
0
LINE
8
TREAD
10
363.000000
20
100.000000
11
363.000000
21
56.000000
0
LINE
8
TREAD
10
423.000000
20
56.000000
11
477.000000
21
56.000000
0
LINE
8
TREAD
10
477.000000
20
56.000000
11
477.000000
21
100.000000
0
LINE
8
TREAD
10
477.000000
20
100.000000
11
423.000000
21
100.000000
0
LINE
8
TREAD
10
423.000000
20
100.000000
11
423.000000
21
56.000000
0
HATCH
100
AcDbEntity
8
TIEBAR
62
30
100
AcDbHatch
10
0.0
20
0.0
30
0.0
210
0.0
220
0.0
230
1.0
2
SOLID
70
1
71
0
91
1
92
1
93
4
72
1
10
34.000000
20
-4.000000
11
50.000000
21
-4.000000
72
2
10
50.000000
20
0.000000
40
4.000000
50
270.0
51
90.0
73
1
72
1
10
50.000000
20
4.000000
11
34.000000
21
4.000000
72
2
10
34.000000
20
0.000000
40
4.000000
50
90.0
51
270.0
73
1
97
0
75
0
76
1
98
0
0
ENDSEC
0
EOF
