0
SECTION
2
ENTITIES
0
LINE
8
TREAD
10
0.000000
20
-100.000000
11
40.000000
21
-99.600000
0
LINE
8
TREAD
10
40.000000
20
-99.600000
11
40.000000
21
-57.600000
0
LINE
8
TREAD
10
40.000000
20
-57.600000
11
0.000000
21
-58.000000
0
LINE
8
TREAD
10
0.000000
20
-58.000000
11
0.000000
21
-100.000000
0
LINE
8
TREAD
10
1.000000
20
-52.000000
11
16.000000
21
-52.000000
0
LINE
8
TREAD
10
16.000000
20
-52.000000
11
16.000000
21
-8.000000
0
LINE
8
TREAD
10
16.000000
20
-8.000000
11
1.000000
21
-8.000000
0
LINE
8
TREAD
10
1.000000
20
-8.000000
11
1.000000
21
-52.000000
0
LINE
8
TREAD
10
24.000000
20
-52.000000
11
39.000000
21
-52.000000
0
LINE
8
TREAD
10
39.000000
20
-52.000000
11
39.000000
21
-8.000000
0
LINE
8
TREAD
10
39.000000
20
-8.000000
11
24.000000
21
-8.000000
0
LINE
8
TREAD
10
24.000000
20
-8.000000
11
24.000000
21
-52.000000
0
LINE
8
TREAD
10
1.000000
20
8.000000
11
16.000000
21
8.000000
0
LINE
8
TREAD
10
16.000000
20
8.000000
11
16.000000
21
52.000000
0
LINE
8
TREAD
10
16.000000
20
52.000000
11
1.000000
21
52.000000
0
LINE
8
TREAD
10
1.000000
20
52.000000
11
1.000000
21
8.000000
0
LINE
8
TREAD
10
24.000000
20
8.000000
11
39.000000
21
8.000000
0
LINE
8
TREAD
10
39.000000
20
8.000000
11
39.000000
21
52.000000
0
LINE
8
TREAD
10
39.000000
20
52.000000
11
24.000000
21
52.000000
0
LINE
8
TREAD
10
24.000000
20
52.000000
11
24.000000
21
8.000000
0
LINE
8
TREAD
10
0.000000
20
58.000000
11
40.000000
21
58.400000
0
LINE
8
TREAD
10
40.000000
20
58.400000
11
40.000000
21
100.400000
0
LINE
8
TREAD
10
40.000000
20
100.400000
11
0.000000
21
100.000000
0
LINE
8
TREAD
10
0.000000
20
100.000000
11
0.000000
21
58.000000
0
ENDSEC
0
EOF
