0
SECTION
2
ENTITIES
0
LINE
8
TREAD
10
2.000000
20
-99.000000
11
32.000000
21
-99.000000
0
LINE
8
TREAD
10
32.000000
20
-99.000000
11
32.000000
21
-58.000000
0
LINE
8
TREAD
10
32.000000
20
-58.000000
11
2.000000
21
-58.000000
0
LINE
8
TREAD
10
2.000000
20
-58.000000
11
2.000000
21
-99.000000
0
LINE
8
TREAD
10
2.000000
20
-52.000000
11
32.000000
21
-52.000000
0
LINE
8
TREAD
10
32.000000
20
-52.000000
11
32.000000
21
-8.000000
0
LINE
8
TREAD
10
32.000000
20
-8.000000
11
2.000000
21
-8.000000
0
LINE
8
TREAD
10
2.000000
20
-8.000000
11
2.000000
21
-52.000000
0
LINE
8
TREAD
10
2.000000
20
8.000000
11
32.000000
21
8.000000
0
LINE
8
TREAD
10
32.000000
20
8.000000
11
32.000000
21
52.000000
0
LINE
8
TREAD
10
32.000000
20
52.000000
11
2.000000
21
52.000000
0
LINE
8
TREAD
10
2.000000
20
52.000000
11
2.000000
21
8.000000
0
LINE
8
TREAD
10
2.000000
20
58.000000
11
32.000000
21
58.000000
0
LINE
8
TREAD
10
32.000000
20
58.000000
11
32.000000
21
99.000000
0
LINE
8
TREAD
10
32.000000
20
99.000000
11
2.000000
21
99.000000
0
LINE
8
TREAD
10
2.000000
20
99.000000
11
2.000000
21
58.000000
0
ENDSEC
0
EOF
