0
SECTION
2
ENTITIES
0
LINE
8
TREAD
10
0.000000
20
-100.000000
11
40.000000
21
-100.000000
0
LINE
8
TREAD
10
40.000000
20
-58.000000
11
0.000000
21
-58.000000
0
LINE
8
TREAD
10
0.000000
20
-58.000000
11
0.000000
21
-100.000000
0
LINE
8
TREAD
10
1.000000
20
-52.000000
11
16.000000
21
-52.000000
0
LINE
8
TREAD
10
16.000000
20
-52.000000
11
16.000000
21
-8.000000
0
LINE
8
TREAD
10
16.000000
20
-8.000000
11
1.000000
21
-8.000000
0
LINE
8
TREAD
10
1.000000
20
-8.000000
11
1.000000
21
-52.000000
0
LINE
8
TREAD
10
24.000000
20
-52.000000
11
39.000000
21
-52.000000
0
LINE
8
TREAD
10
39.000000
20
-52.000000
11
39.000000
21
-8.000000
0
LINE
8
TREAD
10
39.000000
20
-8.000000
11
24.000000
21
-8.000000
0
LINE
8
TREAD
10
24.000000
20
-8.000000
11
24.000000
21
-52.000000
0
LINE
8
TREAD
10
1.000000
20
8.000000
11
16.000000
21
8.000000
0
LINE
8
TREAD
10
16.000000
20
8.000000
11
16.000000
21
52.000000
0
LINE
8
TREAD
10
16.000000
20
52.000000
11
1.000000
21
52.000000
0
LINE
8
TREAD
10
1.000000
20
52.000000
11
1.000000
21
8.000000
0
LINE
8
TREAD
10
24.000000
20
8.000000
11
39.000000
21
8.000000
0
LINE
8
TREAD
10
39.000000
20
8.000000
11
39.000000
21
52.000000
0
LINE
8
TREAD
10
39.000000
20
52.000000
11
24.000000
21
52.000000
0
LINE
8
TREAD
10
24.000000
20
52.000000
11
24.000000
21
8.000000
0
LINE
8
TREAD
10
0.000000
20
58.000000
11
40.000000
21
58.000000
0
LINE
8
TREAD
10
40.000000
20
100.000000
11
0.000000
21
100.000000
0
LINE
8
TREAD
10
0.000000
20
100.000000
11
0.000000
21
58.000000
0
LINE
8
TREAD
10
40.000000
20
-100.000000
11
80.000000
21
-100.000000
0
LINE
8
TREAD
10
80.000000
20
-58.000000
11
40.000000
21
-58.000000
0
LINE
8
TREAD
10
41.000000
20
-52.000000
11
56.000000
21
-52.000000
0
LINE
8
TREAD
10
56.000000
20
-52.000000
11
56.000000
21
-8.000000
0
LINE
8
TREAD
10
56.000000
20
-8.000000
11
41.000000
21
-8.000000
0
LINE
8
TREAD
10
41.000000
20
-8.000000
11
41.000000
21
-52.000000
0
LINE
8
TREAD
10
64.000000
20
-52.000000
11
79.000000
21
-52.000000
0
LINE
8
TREAD
10
79.000000
20
-52.000000
11
79.000000
21
-8.000000
0
LINE
8
TREAD
10
79.000000
20
-8.000000
11
64.000000
21
-8.000000
0
LINE
8
TREAD
10
64.000000
20
-8.000000
11
64.000000
21
-52.000000
0
LINE
8
TREAD
10
41.000000
20
8.000000
11
56.000000
21
8.000000
0
LINE
8
TREAD
10
56.000000
20
8.000000
11
56.000000
21
52.000000
0
LINE
8
TREAD
10
56.000000
20
52.000000
11
41.000000
21
52.000000
0
LINE
8
TREAD
10
41.000000
20
52.000000
11
41.000000
21
8.000000
0
LINE
8
TREAD
10
64.000000
20
8.000000
11
79.000000
21
8.000000
0
LINE
8
TREAD
10
79.000000
20
8.000000
11
79.000000
21
52.000000
0
LINE
8
TREAD
10
79.000000
20
52.000000
11
64.000000
21
52.000000
0
LINE
8
TREAD
10
64.000000
20
52.000000
11
64.000000
21
8.000000
0
LINE
8
TREAD
10
40.000000
20
58.000000
11
80.000000
21
58.000000
0
LINE
8
TREAD
10
80.000000
20
100.000000
11
40.000000
21
100.000000
0
LINE
8
TREAD
10
80.000000
20
-100.000000
11
120.000000
21
-100.000000
0
LINE
8
TREAD
10
120.000000
20
-58.000000
11
80.000000
21
-58.000000
0
LINE
8
TREAD
10
81.000000
20
-52.000000
11
96.000000
21
-52.000000
0
LINE
8
TREAD
10
96.000000
20
-52.000000
11
96.000000
21
-8.000000
0
LINE
8
TREAD
10
96.000000
20
-8.000000
11
81.000000
21
-8.000000
0
LINE
8
TREAD
10
81.000000
20
-8.000000
11
81.000000
21
-52.000000
0
LINE
8
TREAD
10
104.000000
20
-52.000000
11
119.000000
21
-52.000000
0
LINE
8
TREAD
10
119.000000
20
-52.000000
11
119.000000
21
-8.000000
0
LINE
8
TREAD
10
119.000000
20
-8.000000
11
104.000000
21
-8.000000
0
LINE
8
TREAD
10
104.000000
20
-8.000000
11
104.000000
21
-52.000000
0
LINE
8
TREAD
10
81.000000
20
8.000000
11
96.000000
21
8.000000
0
LINE
8
TREAD
10
96.000000
20
8.000000
11
96.000000
21
52.000000
0
LINE
8
TREAD
10
96.000000
20
52.000000
11
81.000000
21
52.000000
0
LINE
8
TREAD
10
81.000000
20
52.000000
11
81.000000
21
8.000000
0
LINE
8
TREAD
10
104.000000
20
8.000000
11
119.000000
21
8.000000
0
LINE
8
TREAD
10
119.000000
20
8.000000
11
119.000000
21
52.000000
0
LINE
8
TREAD
10
119.000000
20
52.000000
11
104.000000
21
52.000000
0
LINE
8
TREAD
10
104.000000
20
52.000000
11
104.000000
21
8.000000
0
LINE
8
TREAD
10
80.000000
20
58.000000
11
120.000000
21
58.000000
0
LINE
8
TREAD
10
120.000000
20
100.000000
11
80.000000
21
100.000000
0
LINE
8
TREAD
10
120.000000
20
-100.000000
11
160.000000
21
-100.000000
0
LINE
8
TREAD
10
160.000000
20
-58.000000
11
120.000000
21
-58.000000
0
LINE
8
TREAD
10
121.000000
20
-52.000000
11
136.000000
21
-52.000000
0
LINE
8
TREAD
10
136.000000
20
-52.000000
11
136.000000
21
-8.000000
0
LINE
8
TREAD
10
136.000000
20
-8.000000
11
121.000000
21
-8.000000
0
LINE
8
TREAD
10
121.000000
20
-8.000000
11
121.000000
21
-52.000000
0
LINE
8
TREAD
10
144.000000
20
-52.000000
11
159.000000
21
-52.000000
0
LINE
8
TREAD
10
159.000000
20
-52.000000
11
159.000000
21
-8.000000
0
LINE
8
TREAD
10
159.000000
20
-8.000000
11
144.000000
21
-8.000000
0
LINE
8
TREAD
10
144.000000
20
-8.000000
11
144.000000
21
-52.000000
0
LINE
8
TREAD
10
121.000000
20
8.000000
11
136.000000
21
8.000000
0
LINE
8
TREAD
10
136.000000
20
8.000000
11
136.000000
21
52.000000
0
LINE
8
TREAD
10
136.000000
20
52.000000
11
121.000000
21
52.000000
0
LINE
8
TREAD
10
121.000000
20
52.000000
11
121.000000
21
8.000000
0
LINE
8
TREAD
10
144.000000
20
8.000000
11
159.000000
21
8.000000
0
LINE
8
TREAD
10
159.000000
20
8.000000
11
159.000000
21
52.000000
0
LINE
8
TREAD
10
159.000000
20
52.000000
11
144.000000
21
52.000000
0
LINE
8
TREAD
10
144.000000
20
52.000000
11
144.000000
21
8.000000
0
LINE
8
TREAD
10
120.000000
20
58.000000
11
160.000000
21
58.000000
0
LINE
8
TREAD
10
160.000000
20
100.000000
11
120.000000
21
100.000000
0
LINE
8
TREAD
10
160.000000
20
-100.000000
11
200.000000
21
-100.000000
0
LINE
8
TREAD
10
200.000000
20
-58.000000
11
160.000000
21
-58.000000
0
LINE
8
TREAD
10
161.000000
20
-52.000000
11
176.000000
21
-52.000000
0
LINE
8
TREAD
10
176.000000
20
-52.000000
11
176.000000
21
-8.000000
0
LINE
8
TREAD
10
176.000000
20
-8.000000
11
161.000000
21
-8.000000
0
LINE
8
TREAD
10
161.000000
20
-8.000000
11
161.000000
21
-52.000000
0
LINE
8
TREAD
10
184.000000
20
-52.000000
11
199.000000
21
-52.000000
0
LINE
8
TREAD
10
199.000000
20
-52.000000
11
199.000000
21
-8.000000
0
LINE
8
TREAD
10
199.000000
20
-8.000000
11
184.000000
21
-8.000000
0
LINE
8
TREAD
10
184.000000
20
-8.000000
11
184.000000
21
-52.000000
0
LINE
8
TREAD
10
161.000000
20
8.000000
11
176.000000
21
8.000000
0
LINE
8
TREAD
10
176.000000
20
8.000000
11
176.000000
21
52.000000
0
LINE
8
TREAD
10
176.000000
20
52.000000
11
161.000000
21
52.000000
0
LINE
8
TREAD
10
161.000000
20
52.000000
11
161.000000
21
8.000000
0
LINE
8
TREAD
10
184.000000
20
8.000000
11
199.000000
21
8.000000
0
LINE
8
TREAD
10
199.000000
20
8.000000
11
199.000000
21
52.000000
0
LINE
8
TREAD
10
199.000000
20
52.000000
11
184.000000
21
52.000000
0
LINE
8
TREAD
10
184.000000
20
52.000000
11
184.000000
21
8.000000
0
LINE
8
TREAD
10
160.000000
20
58.000000
11
200.000000
21
58.000000
0
LINE
8
TREAD
10
200.000000
20
100.000000
11
160.000000
21
100.000000
0
LINE
8
TREAD
10
200.000000
20
-100.000000
11
240.000000
21
-100.000000
0
LINE
8
TREAD
10
240.000000
20
-100.000000
11
240.000000
21
-58.000000
0
LINE
8
TREAD
10
240.000000
20
-58.000000
11
200.000000
21
-58.000000
0
LINE
8
TREAD
10
201.000000
20
-52.000000
11
216.000000
21
-52.000000
0
LINE
8
TREAD
10
216.000000
20
-52.000000
11
216.000000
21
-8.000000
0
LINE
8
TREAD
10
216.000000
20
-8.000000
11
201.000000
21
-8.000000
0
LINE
8
TREAD
10
201.000000
20
-8.000000
11
201.000000
21
-52.000000
0
LINE
8
TREAD
10
224.000000
20
-52.000000
11
239.000000
21
-52.000000
0
LINE
8
TREAD
10
239.000000
20
-52.000000
11
239.000000
21
-8.000000
0
LINE
8
TREAD
10
239.000000
20
-8.000000
11
224.000000
21
-8.000000
0
LINE
8
TREAD
10
224.000000
20
-8.000000
11
224.000000
21
-52.000000
0
LINE
8
TREAD
10
201.000000
20
8.000000
11
216.000000
21
8.000000
0
LINE
8
TREAD
10
216.000000
20
8.000000
11
216.000000
21
52.000000
0
LINE
8
TREAD
10
216.000000
20
52.000000
11
201.000000
21
52.000000
0
LINE
8
TREAD
10
201.000000
20
52.000000
11
201.000000
21
8.000000
0
LINE
8
TREAD
10
224.000000
20
8.000000
11
239.000000
21
8.000000
0
LINE
8
TREAD
10
239.000000
20
8.000000
11
239.000000
21
52.000000
0
LINE
8
TREAD
10
239.000000
20
52.000000
11
224.000000
21
52.000000
0
LINE
8
TREAD
10
224.000000
20
52.000000
11
224.000000
21
8.000000
0
LINE
8
TREAD
10
200.000000
20
58.000000
11
240.000000
21
58.000000
0
LINE
8
TREAD
10
240.000000
20
58.000000
11
240.000000
21
100.000000
0
LINE
8
TREAD
10
240.000000
20
100.000000
11
200.000000
21
100.000000
0
ENDSEC
0
EOF
