ISO-10303-21;
HEADER;
FILE_DESCRIPTION((''),'2;1');
FILE_NAME('plate_holes','2026-01-01T00:00:00',(''),(''),'','','');
FILE_SCHEMA(('AUTOMOTIVE_DESIGN { 1 0 10303 214 1 1 1 1 }'));
ENDSEC;
DATA;
#1 = CARTESIAN_POINT('',(0.0,0.0,10.0));
#2 = VERTEX_POINT('',#1);
#3 = CARTESIAN_POINT('',(100.0,0.0,10.0));
#4 = VERTEX_POINT('',#3);
#5 = CARTESIAN_POINT('',(100.0,60.0,10.0));
#6 = VERTEX_POINT('',#5);
#7 = CARTESIAN_POINT('',(0.0,60.0,10.0));
#8 = VERTEX_POINT('',#7);
#9 = DIRECTION('',(1.0,0.0,0.0));
#10 = VECTOR('',#9,100.0);
#11 = CARTESIAN_POINT('',(0.0,0.0,10.0));
#12 = LINE('',#11,#10);
#13 = EDGE_CURVE('',#2,#4,#12,.T.);
#14 = DIRECTION('',(0.0,1.0,0.0));
#15 = VECTOR('',#14,60.0);
#16 = CARTESIAN_POINT('',(100.0,0.0,10.0));
#17 = LINE('',#16,#15);
#18 = EDGE_CURVE('',#4,#6,#17,.T.);
#19 = DIRECTION('',(-1.0,0.0,0.0));
#20 = VECTOR('',#19,100.0);
#21 = CARTESIAN_POINT('',(100.0,60.0,10.0));
#22 = LINE('',#21,#20);
#23 = EDGE_CURVE('',#6,#8,#22,.T.);
#24 = DIRECTION('',(0.0,-1.0,0.0));
#25 = VECTOR('',#24,60.0);
#26 = CARTESIAN_POINT('',(0.0,60.0,10.0));
#27 = LINE('',#26,#25);
#28 = EDGE_CURVE('',#8,#2,#27,.T.);
#29 = ORIENTED_EDGE('',*,*,#13,.T.);
#30 = ORIENTED_EDGE('',*,*,#18,.T.);
#31 = ORIENTED_EDGE('',*,*,#23,.T.);
#32 = ORIENTED_EDGE('',*,*,#28,.T.);
#33 = EDGE_LOOP('',(#29,#30,#31,#32));
#34 = CARTESIAN_POINT('',(10.0,10.0,10.0));
#35 = VERTEX_POINT('',#34);
#36 = CARTESIAN_POINT('',(30.0,10.0,10.0));
#37 = VERTEX_POINT('',#36);
#38 = CARTESIAN_POINT('',(30.0,20.0,10.0));
#39 = VERTEX_POINT('',#38);
#40 = CARTESIAN_POINT('',(10.0,20.0,10.0));
#41 = VERTEX_POINT('',#40);
#42 = DIRECTION('',(1.0,0.0,0.0));
#43 = VECTOR('',#42,20.0);
#44 = CARTESIAN_POINT('',(10.0,10.0,10.0));
#45 = LINE('',#44,#43);
#46 = EDGE_CURVE('',#35,#37,#45,.T.);
#47 = DIRECTION('',(0.0,1.0,0.0));
#48 = VECTOR('',#47,10.0);
#49 = CARTESIAN_POINT('',(30.0,10.0,10.0));
#50 = LINE('',#49,#48);
#51 = EDGE_CURVE('',#37,#39,#50,.T.);
#52 = DIRECTION('',(-1.0,0.0,0.0));
#53 = VECTOR('',#52,20.0);
#54 = CARTESIAN_POINT('',(30.0,20.0,10.0));
#55 = LINE('',#54,#53);
#56 = EDGE_CURVE('',#39,#41,#55,.T.);
#57 = DIRECTION('',(0.0,-1.0,0.0));
#58 = VECTOR('',#57,10.0);
#59 = CARTESIAN_POINT('',(10.0,20.0,10.0));
#60 = LINE('',#59,#58);
#61 = EDGE_CURVE('',#41,#35,#60,.T.);
#62 = ORIENTED_EDGE('',*,*,#46,.T.);
#63 = ORIENTED_EDGE('',*,*,#51,.T.);
#64 = ORIENTED_EDGE('',*,*,#56,.T.);
#65 = ORIENTED_EDGE('',*,*,#61,.T.);
#66 = EDGE_LOOP('',(#62,#63,#64,#65));
#67 = CARTESIAN_POINT('',(60.0,35.0,10.0));
#68 = VERTEX_POINT('',#67);
#69 = CARTESIAN_POINT('',(80.0,35.0,10.0));
#70 = VERTEX_POINT('',#69);
#71 = CARTESIAN_POINT('',(80.0,45.0,10.0));
#72 = VERTEX_POINT('',#71);
#73 = CARTESIAN_POINT('',(60.0,45.0,10.0));
#74 = VERTEX_POINT('',#73);
#75 = DIRECTION('',(1.0,0.0,0.0));
#76 = VECTOR('',#75,20.0);
#77 = CARTESIAN_POINT('',(60.0,35.0,10.0));
#78 = LINE('',#77,#76);
#79 = EDGE_CURVE('',#68,#70,#78,.T.);
#80 = DIRECTION('',(0.0,1.0,0.0));
#81 = VECTOR('',#80,10.0);
#82 = CARTESIAN_POINT('',(80.0,35.0,10.0));
#83 = LINE('',#82,#81);
#84 = EDGE_CURVE('',#70,#72,#83,.T.);
#85 = DIRECTION('',(-1.0,0.0,0.0));
#86 = VECTOR('',#85,20.0);
#87 = CARTESIAN_POINT('',(80.0,45.0,10.0));
#88 = LINE('',#87,#86);
#89 = EDGE_CURVE('',#72,#74,#88,.T.);
#90 = DIRECTION('',(0.0,-1.0,0.0));
#91 = VECTOR('',#90,10.0);
#92 = CARTESIAN_POINT('',(60.0,45.0,10.0));
#93 = LINE('',#92,#91);
#94 = EDGE_CURVE('',#74,#68,#93,.T.);
#95 = ORIENTED_EDGE('',*,*,#79,.T.);
#96 = ORIENTED_EDGE('',*,*,#84,.T.);
#97 = ORIENTED_EDGE('',*,*,#89,.T.);
#98 = ORIENTED_EDGE('',*,*,#94,.T.);
#99 = EDGE_LOOP('',(#95,#96,#97,#98));
#100 = CARTESIAN_POINT('',(55.0,20.0,10.0));
#101 = VERTEX_POINT('',#100);
#102 = CARTESIAN_POINT('',(45.0,20.0,10.0));
#103 = VERTEX_POINT('',#102);
#104 = CARTESIAN_POINT('',(50.0,20.0,10.0));
#105 = DIRECTION('',(0.,0.,1.));
#106 = DIRECTION('',(1.,0.,0.));
#107 = AXIS2_PLACEMENT_3D('',#104,#105,#106);
#108 = CIRCLE('',#107,5.0);
#109 = EDGE_CURVE('',#101,#103,#108,.T.);
#110 = CARTESIAN_POINT('',(50.0,20.0,10.0));
#111 = DIRECTION('',(0.,0.,1.));
#112 = DIRECTION('',(1.,0.,0.));
#113 = AXIS2_PLACEMENT_3D('',#110,#111,#112);
#114 = CIRCLE('',#113,5.0);
#115 = EDGE_CURVE('',#103,#101,#114,.T.);
#116 = ORIENTED_EDGE('',*,*,#109,.T.);
#117 = ORIENTED_EDGE('',*,*,#115,.T.);
#118 = EDGE_LOOP('',(#116,#117));
#119 = CARTESIAN_POINT('',(0.,0.,10.0));
#120 = DIRECTION('',(0.,0.,1.));
#121 = DIRECTION('',(1.,0.,0.));
#122 = AXIS2_PLACEMENT_3D('',#119,#120,#121);
#123 = PLANE('',#122);
#124 = FACE_OUTER_BOUND('',#33,.T.);
#125 = FACE_BOUND('',#66,.T.);
#126 = FACE_BOUND('',#99,.T.);
#127 = FACE_BOUND('',#118,.T.);
#128 = ADVANCED_FACE('',(#124,#125,#126,#127),#123,.T.);
#129 = CARTESIAN_POINT('',(10.0,10.0,2.0));
#130 = VERTEX_POINT('',#129);
#131 = CARTESIAN_POINT('',(30.0,10.0,2.0));
#132 = VERTEX_POINT('',#131);
#133 = CARTESIAN_POINT('',(30.0,20.0,2.0));
#134 = VERTEX_POINT('',#133);
#135 = CARTESIAN_POINT('',(10.0,20.0,2.0));
#136 = VERTEX_POINT('',#135);
#137 = DIRECTION('',(1.0,0.0,0.0));
#138 = VECTOR('',#137,20.0);
#139 = CARTESIAN_POINT('',(10.0,10.0,2.0));
#140 = LINE('',#139,#138);
#141 = EDGE_CURVE('',#130,#132,#140,.T.);
#142 = DIRECTION('',(0.0,1.0,0.0));
#143 = VECTOR('',#142,10.0);
#144 = CARTESIAN_POINT('',(30.0,10.0,2.0));
#145 = LINE('',#144,#143);
#146 = EDGE_CURVE('',#132,#134,#145,.T.);
#147 = DIRECTION('',(-1.0,0.0,0.0));
#148 = VECTOR('',#147,20.0);
#149 = CARTESIAN_POINT('',(30.0,20.0,2.0));
#150 = LINE('',#149,#148);
#151 = EDGE_CURVE('',#134,#136,#150,.T.);
#152 = DIRECTION('',(0.0,-1.0,0.0));
#153 = VECTOR('',#152,10.0);
#154 = CARTESIAN_POINT('',(10.0,20.0,2.0));
#155 = LINE('',#154,#153);
#156 = EDGE_CURVE('',#136,#130,#155,.T.);
#157 = ORIENTED_EDGE('',*,*,#141,.T.);
#158 = ORIENTED_EDGE('',*,*,#146,.T.);
#159 = ORIENTED_EDGE('',*,*,#151,.T.);
#160 = ORIENTED_EDGE('',*,*,#156,.T.);
#161 = EDGE_LOOP('',(#157,#158,#159,#160));
#162 = CARTESIAN_POINT('',(0.,0.,2.0));
#163 = DIRECTION('',(0.,0.,1.));
#164 = DIRECTION('',(1.,0.,0.));
#165 = AXIS2_PLACEMENT_3D('',#162,#163,#164);
#166 = PLANE('',#165);
#167 = FACE_OUTER_BOUND('',#161,.T.);
#168 = ADVANCED_FACE('',(#167),#166,.T.);
#169 = CARTESIAN_POINT('',(60.0,35.0,2.0));
#170 = VERTEX_POINT('',#169);
#171 = CARTESIAN_POINT('',(80.0,35.0,2.0));
#172 = VERTEX_POINT('',#171);
#173 = CARTESIAN_POINT('',(80.0,45.0,2.0));
#174 = VERTEX_POINT('',#173);
#175 = CARTESIAN_POINT('',(60.0,45.0,2.0));
#176 = VERTEX_POINT('',#175);
#177 = DIRECTION('',(1.0,0.0,0.0));
#178 = VECTOR('',#177,20.0);
#179 = CARTESIAN_POINT('',(60.0,35.0,2.0));
#180 = LINE('',#179,#178);
#181 = EDGE_CURVE('',#170,#172,#180,.T.);
#182 = DIRECTION('',(0.0,1.0,0.0));
#183 = VECTOR('',#182,10.0);
#184 = CARTESIAN_POINT('',(80.0,35.0,2.0));
#185 = LINE('',#184,#183);
#186 = EDGE_CURVE('',#172,#174,#185,.T.);
#187 = DIRECTION('',(-1.0,0.0,0.0));
#188 = VECTOR('',#187,20.0);
#189 = CARTESIAN_POINT('',(80.0,45.0,2.0));
#190 = LINE('',#189,#188);
#191 = EDGE_CURVE('',#174,#176,#190,.T.);
#192 = DIRECTION('',(0.0,-1.0,0.0));
#193 = VECTOR('',#192,10.0);
#194 = CARTESIAN_POINT('',(60.0,45.0,2.0));
#195 = LINE('',#194,#193);
#196 = EDGE_CURVE('',#176,#170,#195,.T.);
#197 = ORIENTED_EDGE('',*,*,#181,.T.);
#198 = ORIENTED_EDGE('',*,*,#186,.T.);
#199 = ORIENTED_EDGE('',*,*,#191,.T.);
#200 = ORIENTED_EDGE('',*,*,#196,.T.);
#201 = EDGE_LOOP('',(#197,#198,#199,#200));
#202 = CARTESIAN_POINT('',(0.,0.,2.0));
#203 = DIRECTION('',(0.,0.,1.));
#204 = DIRECTION('',(1.,0.,0.));
#205 = AXIS2_PLACEMENT_3D('',#202,#203,#204);
#206 = PLANE('',#205);
#207 = FACE_OUTER_BOUND('',#201,.T.);
#208 = ADVANCED_FACE('',(#207),#206,.T.);
#209 = CARTESIAN_POINT('',(55.0,20.0,2.0));
#210 = VERTEX_POINT('',#209);
#211 = CARTESIAN_POINT('',(45.0,20.0,2.0));
#212 = VERTEX_POINT('',#211);
#213 = CARTESIAN_POINT('',(50.0,20.0,2.0));
#214 = DIRECTION('',(0.,0.,1.));
#215 = DIRECTION('',(1.,0.,0.));
#216 = AXIS2_PLACEMENT_3D('',#213,#214,#215);
#217 = CIRCLE('',#216,5.0);
#218 = EDGE_CURVE('',#210,#212,#217,.T.);
#219 = CARTESIAN_POINT('',(50.0,20.0,2.0));
#220 = DIRECTION('',(0.,0.,1.));
#221 = DIRECTION('',(1.,0.,0.));
#222 = AXIS2_PLACEMENT_3D('',#219,#220,#221);
#223 = CIRCLE('',#222,5.0);
#224 = EDGE_CURVE('',#212,#210,#223,.T.);
#225 = ORIENTED_EDGE('',*,*,#218,.T.);
#226 = ORIENTED_EDGE('',*,*,#224,.T.);
#227 = EDGE_LOOP('',(#225,#226));
#228 = CARTESIAN_POINT('',(0.,0.,2.0));
#229 = DIRECTION('',(0.,0.,1.));
#230 = DIRECTION('',(1.,0.,0.));
#231 = AXIS2_PLACEMENT_3D('',#228,#229,#230);
#232 = PLANE('',#231);
#233 = FACE_OUTER_BOUND('',#227,.T.);
#234 = ADVANCED_FACE('',(#233),#232,.T.);
#235 = OPEN_SHELL('',(#128,#168,#208,#234));
#236 = SHELL_BASED_SURFACE_MODEL('plate_holes',(#235));
#237 = ( LENGTH_UNIT() NAMED_UNIT(*) SI_UNIT(.MILLI.,.METRE.) );
#238 = ( NAMED_UNIT(*) PLANE_ANGLE_UNIT() SI_UNIT($,.RADIAN.) );
#239 = ( NAMED_UNIT(*) SI_UNIT($,.STERADIAN.) SOLID_ANGLE_UNIT() );
#240 = UNCERTAINTY_MEASURE_WITH_UNIT(LENGTH_MEASURE(1.E-07),#237,'distance_accuracy_value','confusion accuracy');
#241 = ( GEOMETRIC_REPRESENTATION_CONTEXT(3) GLOBAL_UNCERTAINTY_ASSIGNED_CONTEXT((#240)) GLOBAL_UNIT_ASSIGNED_CONTEXT((#237,#238,#239)) REPRESENTATION_CONTEXT('','') );
ENDSEC;
END-ISO-10303-21;
