ISO-10303-21;
HEADER;
FILE_DESCRIPTION((''),'2;1');
FILE_NAME('blocks','2026-01-01T00:00:00',(''),(''),'','','');
FILE_SCHEMA(('AUTOMOTIVE_DESIGN { 1 0 10303 214 1 1 1 1 }'));
ENDSEC;
DATA;
#1 = CARTESIAN_POINT('',(0.,0.0,10.0));
#2 = VERTEX_POINT('',#1);
#3 = CARTESIAN_POINT('',(100.0,0.0,10.0));
#4 = VERTEX_POINT('',#3);
#5 = CARTESIAN_POINT('',(100.0,8.8,10.0));
#6 = VERTEX_POINT('',#5);
#7 = CARTESIAN_POINT('',(0.,8.8,10.0));
#8 = VERTEX_POINT('',#7);
#9 = DIRECTION('',(1.0,0.0,0.0));
#10 = VECTOR('',#9,100.0);
#11 = CARTESIAN_POINT('',(0.,0.0,10.0));
#12 = LINE('',#11,#10);
#13 = EDGE_CURVE('',#2,#4,#12,.T.);
#14 = DIRECTION('',(0.0,1.0,0.0));
#15 = VECTOR('',#14,8.8);
#16 = CARTESIAN_POINT('',(100.0,0.0,10.0));
#17 = LINE('',#16,#15);
#18 = EDGE_CURVE('',#4,#6,#17,.T.);
#19 = DIRECTION('',(-1.0,0.0,0.0));
#20 = VECTOR('',#19,100.0);
#21 = CARTESIAN_POINT('',(100.0,8.8,10.0));
#22 = LINE('',#21,#20);
#23 = EDGE_CURVE('',#6,#8,#22,.T.);
#24 = DIRECTION('',(0.0,-1.0,0.0));
#25 = VECTOR('',#24,8.8);
#26 = CARTESIAN_POINT('',(0.,8.8,10.0));
#27 = LINE('',#26,#25);
#28 = EDGE_CURVE('',#8,#2,#27,.T.);
#29 = ORIENTED_EDGE('',*,*,#13,.T.);
#30 = ORIENTED_EDGE('',*,*,#18,.T.);
#31 = ORIENTED_EDGE('',*,*,#23,.T.);
#32 = ORIENTED_EDGE('',*,*,#28,.T.);
#33 = EDGE_LOOP('',(#29,#30,#31,#32));
#34 = CARTESIAN_POINT('',(0.,0.,10.0));
#35 = DIRECTION('',(0.,0.,1.));
#36 = DIRECTION('',(1.,0.,0.));
#37 = AXIS2_PLACEMENT_3D('',#34,#35,#36);
#38 = PLANE('',#37);
#39 = FACE_OUTER_BOUND('',#33,.T.);
#40 = ADVANCED_FACE('',(#39),#38,.T.);
#41 = CARTESIAN_POINT('',(0.,12.8,10.0));
#42 = VERTEX_POINT('',#41);
#43 = CARTESIAN_POINT('',(100.0,12.8,10.0));
#44 = VERTEX_POINT('',#43);
#45 = CARTESIAN_POINT('',(100.0,21.6,10.0));
#46 = VERTEX_POINT('',#45);
#47 = CARTESIAN_POINT('',(0.,21.6,10.0));
#48 = VERTEX_POINT('',#47);
#49 = DIRECTION('',(1.0,0.0,0.0));
#50 = VECTOR('',#49,100.0);
#51 = CARTESIAN_POINT('',(0.,12.8,10.0));
#52 = LINE('',#51,#50);
#53 = EDGE_CURVE('',#42,#44,#52,.T.);
#54 = DIRECTION('',(0.0,1.0,0.0));
#55 = VECTOR('',#54,8.8);
#56 = CARTESIAN_POINT('',(100.0,12.8,10.0));
#57 = LINE('',#56,#55);
#58 = EDGE_CURVE('',#44,#46,#57,.T.);
#59 = DIRECTION('',(-1.0,0.0,0.0));
#60 = VECTOR('',#59,100.0);
#61 = CARTESIAN_POINT('',(100.0,21.6,10.0));
#62 = LINE('',#61,#60);
#63 = EDGE_CURVE('',#46,#48,#62,.T.);
#64 = DIRECTION('',(0.0,-1.0,0.0));
#65 = VECTOR('',#64,8.8);
#66 = CARTESIAN_POINT('',(0.,21.6,10.0));
#67 = LINE('',#66,#65);
#68 = EDGE_CURVE('',#48,#42,#67,.T.);
#69 = ORIENTED_EDGE('',*,*,#53,.T.);
#70 = ORIENTED_EDGE('',*,*,#58,.T.);
#71 = ORIENTED_EDGE('',*,*,#63,.T.);
#72 = ORIENTED_EDGE('',*,*,#68,.T.);
#73 = EDGE_LOOP('',(#69,#70,#71,#72));
#74 = CARTESIAN_POINT('',(0.,0.,10.0));
#75 = DIRECTION('',(0.,0.,1.));
#76 = DIRECTION('',(1.,0.,0.));
#77 = AXIS2_PLACEMENT_3D('',#74,#75,#76);
#78 = PLANE('',#77);
#79 = FACE_OUTER_BOUND('',#73,.T.);
#80 = ADVANCED_FACE('',(#79),#78,.T.);
#81 = CARTESIAN_POINT('',(0.,25.6,10.0));
#82 = VERTEX_POINT('',#81);
#83 = CARTESIAN_POINT('',(100.0,25.6,10.0));
#84 = VERTEX_POINT('',#83);
#85 = CARTESIAN_POINT('',(100.0,34.400000000000006,10.0));
#86 = VERTEX_POINT('',#85);
#87 = CARTESIAN_POINT('',(0.,34.400000000000006,10.0));
#88 = VERTEX_POINT('',#87);
#89 = DIRECTION('',(1.0,0.0,0.0));
#90 = VECTOR('',#89,100.0);
#91 = CARTESIAN_POINT('',(0.,25.6,10.0));
#92 = LINE('',#91,#90);
#93 = EDGE_CURVE('',#82,#84,#92,.T.);
#94 = DIRECTION('',(0.0,1.0,0.0));
#95 = VECTOR('',#94,8.800000000000004);
#96 = CARTESIAN_POINT('',(100.0,25.6,10.0));
#97 = LINE('',#96,#95);
#98 = EDGE_CURVE('',#84,#86,#97,.T.);
#99 = DIRECTION('',(-1.0,0.0,0.0));
#100 = VECTOR('',#99,100.0);
#101 = CARTESIAN_POINT('',(100.0,34.400000000000006,10.0));
#102 = LINE('',#101,#100);
#103 = EDGE_CURVE('',#86,#88,#102,.T.);
#104 = DIRECTION('',(0.0,-1.0,0.0));
#105 = VECTOR('',#104,8.800000000000004);
#106 = CARTESIAN_POINT('',(0.,34.400000000000006,10.0));
#107 = LINE('',#106,#105);
#108 = EDGE_CURVE('',#88,#82,#107,.T.);
#109 = ORIENTED_EDGE('',*,*,#93,.T.);
#110 = ORIENTED_EDGE('',*,*,#98,.T.);
#111 = ORIENTED_EDGE('',*,*,#103,.T.);
#112 = ORIENTED_EDGE('',*,*,#108,.T.);
#113 = EDGE_LOOP('',(#109,#110,#111,#112));
#114 = CARTESIAN_POINT('',(0.,0.,10.0));
#115 = DIRECTION('',(0.,0.,1.));
#116 = DIRECTION('',(1.,0.,0.));
#117 = AXIS2_PLACEMENT_3D('',#114,#115,#116);
#118 = PLANE('',#117);
#119 = FACE_OUTER_BOUND('',#113,.T.);
#120 = ADVANCED_FACE('',(#119),#118,.T.);
#121 = CARTESIAN_POINT('',(0.,38.400000000000006,10.0));
#122 = VERTEX_POINT('',#121);
#123 = CARTESIAN_POINT('',(100.0,38.400000000000006,10.0));
#124 = VERTEX_POINT('',#123);
#125 = CARTESIAN_POINT('',(100.0,47.2,10.0));
#126 = VERTEX_POINT('',#125);
#127 = CARTESIAN_POINT('',(0.,47.2,10.0));
#128 = VERTEX_POINT('',#127);
#129 = DIRECTION('',(1.0,0.0,0.0));
#130 = VECTOR('',#129,100.0);
#131 = CARTESIAN_POINT('',(0.,38.400000000000006,10.0));
#132 = LINE('',#131,#130);
#133 = EDGE_CURVE('',#122,#124,#132,.T.);
#134 = DIRECTION('',(0.0,1.0,0.0));
#135 = VECTOR('',#134,8.799999999999997);
#136 = CARTESIAN_POINT('',(100.0,38.400000000000006,10.0));
#137 = LINE('',#136,#135);
#138 = EDGE_CURVE('',#124,#126,#137,.T.);
#139 = DIRECTION('',(-1.0,0.0,0.0));
#140 = VECTOR('',#139,100.0);
#141 = CARTESIAN_POINT('',(100.0,47.2,10.0));
#142 = LINE('',#141,#140);
#143 = EDGE_CURVE('',#126,#128,#142,.T.);
#144 = DIRECTION('',(0.0,-1.0,0.0));
#145 = VECTOR('',#144,8.799999999999997);
#146 = CARTESIAN_POINT('',(0.,47.2,10.0));
#147 = LINE('',#146,#145);
#148 = EDGE_CURVE('',#128,#122,#147,.T.);
#149 = ORIENTED_EDGE('',*,*,#133,.T.);
#150 = ORIENTED_EDGE('',*,*,#138,.T.);
#151 = ORIENTED_EDGE('',*,*,#143,.T.);
#152 = ORIENTED_EDGE('',*,*,#148,.T.);
#153 = EDGE_LOOP('',(#149,#150,#151,#152));
#154 = CARTESIAN_POINT('',(0.,0.,10.0));
#155 = DIRECTION('',(0.,0.,1.));
#156 = DIRECTION('',(1.,0.,0.));
#157 = AXIS2_PLACEMENT_3D('',#154,#155,#156);
#158 = PLANE('',#157);
#159 = FACE_OUTER_BOUND('',#153,.T.);
#160 = ADVANCED_FACE('',(#159),#158,.T.);
#161 = CARTESIAN_POINT('',(0.,51.2,10.0));
#162 = VERTEX_POINT('',#161);
#163 = CARTESIAN_POINT('',(100.0,51.2,10.0));
#164 = VERTEX_POINT('',#163);
#165 = CARTESIAN_POINT('',(100.0,60.0,10.0));
#166 = VERTEX_POINT('',#165);
#167 = CARTESIAN_POINT('',(0.,60.0,10.0));
#168 = VERTEX_POINT('',#167);
#169 = DIRECTION('',(1.0,0.0,0.0));
#170 = VECTOR('',#169,100.0);
#171 = CARTESIAN_POINT('',(0.,51.2,10.0));
#172 = LINE('',#171,#170);
#173 = EDGE_CURVE('',#162,#164,#172,.T.);
#174 = DIRECTION('',(0.0,1.0,0.0));
#175 = VECTOR('',#174,8.799999999999997);
#176 = CARTESIAN_POINT('',(100.0,51.2,10.0));
#177 = LINE('',#176,#175);
#178 = EDGE_CURVE('',#164,#166,#177,.T.);
#179 = DIRECTION('',(-1.0,0.0,0.0));
#180 = VECTOR('',#179,100.0);
#181 = CARTESIAN_POINT('',(100.0,60.0,10.0));
#182 = LINE('',#181,#180);
#183 = EDGE_CURVE('',#166,#168,#182,.T.);
#184 = DIRECTION('',(0.0,-1.0,0.0));
#185 = VECTOR('',#184,8.799999999999997);
#186 = CARTESIAN_POINT('',(0.,60.0,10.0));
#187 = LINE('',#186,#185);
#188 = EDGE_CURVE('',#168,#162,#187,.T.);
#189 = ORIENTED_EDGE('',*,*,#173,.T.);
#190 = ORIENTED_EDGE('',*,*,#178,.T.);
#191 = ORIENTED_EDGE('',*,*,#183,.T.);
#192 = ORIENTED_EDGE('',*,*,#188,.T.);
#193 = EDGE_LOOP('',(#189,#190,#191,#192));
#194 = CARTESIAN_POINT('',(0.,0.,10.0));
#195 = DIRECTION('',(0.,0.,1.));
#196 = DIRECTION('',(1.,0.,0.));
#197 = AXIS2_PLACEMENT_3D('',#194,#195,#196);
#198 = PLANE('',#197);
#199 = FACE_OUTER_BOUND('',#193,.T.);
#200 = ADVANCED_FACE('',(#199),#198,.T.);
#201 = CARTESIAN_POINT('',(0.,0.,2.0));
#202 = VERTEX_POINT('',#201);
#203 = CARTESIAN_POINT('',(100.0,0.,2.0));
#204 = VERTEX_POINT('',#203);
#205 = CARTESIAN_POINT('',(100.0,60.0,2.0));
#206 = VERTEX_POINT('',#205);
#207 = CARTESIAN_POINT('',(0.,60.0,2.0));
#208 = VERTEX_POINT('',#207);
#209 = DIRECTION('',(1.0,0.0,0.0));
#210 = VECTOR('',#209,100.0);
#211 = CARTESIAN_POINT('',(0.,0.,2.0));
#212 = LINE('',#211,#210);
#213 = EDGE_CURVE('',#202,#204,#212,.T.);
#214 = DIRECTION('',(0.0,1.0,0.0));
#215 = VECTOR('',#214,60.0);
#216 = CARTESIAN_POINT('',(100.0,0.,2.0));
#217 = LINE('',#216,#215);
#218 = EDGE_CURVE('',#204,#206,#217,.T.);
#219 = DIRECTION('',(-1.0,0.0,0.0));
#220 = VECTOR('',#219,100.0);
#221 = CARTESIAN_POINT('',(100.0,60.0,2.0));
#222 = LINE('',#221,#220);
#223 = EDGE_CURVE('',#206,#208,#222,.T.);
#224 = DIRECTION('',(0.0,-1.0,0.0));
#225 = VECTOR('',#224,60.0);
#226 = CARTESIAN_POINT('',(0.,60.0,2.0));
#227 = LINE('',#226,#225);
#228 = EDGE_CURVE('',#208,#202,#227,.T.);
#229 = ORIENTED_EDGE('',*,*,#213,.T.);
#230 = ORIENTED_EDGE('',*,*,#218,.T.);
#231 = ORIENTED_EDGE('',*,*,#223,.T.);
#232 = ORIENTED_EDGE('',*,*,#228,.T.);
#233 = EDGE_LOOP('',(#229,#230,#231,#232));
#234 = CARTESIAN_POINT('',(0.,0.,2.0));
#235 = DIRECTION('',(0.,0.,1.));
#236 = DIRECTION('',(1.,0.,0.));
#237 = AXIS2_PLACEMENT_3D('',#234,#235,#236);
#238 = PLANE('',#237);
#239 = FACE_OUTER_BOUND('',#233,.T.);
#240 = ADVANCED_FACE('',(#239),#238,.T.);
#241 = OPEN_SHELL('',(#40,#80,#120,#160,#200,#240));
#242 = SHELL_BASED_SURFACE_MODEL('blocks',(#241));
#243 = ( LENGTH_UNIT() NAMED_UNIT(*) SI_UNIT(.MILLI.,.METRE.) );
#244 = ( NAMED_UNIT(*) PLANE_ANGLE_UNIT() SI_UNIT($,.RADIAN.) );
#245 = ( NAMED_UNIT(*) SI_UNIT($,.STERADIAN.) SOLID_ANGLE_UNIT() );
#246 = UNCERTAINTY_MEASURE_WITH_UNIT(LENGTH_MEASURE(1.E-07),#243,'distance_accuracy_value','confusion accuracy');
#247 = ( GEOMETRIC_REPRESENTATION_CONTEXT(3) GLOBAL_UNCERTAINTY_ASSIGNED_CONTEXT((#246)) GLOBAL_UNIT_ASSIGNED_CONTEXT((#243,#244,#245)) REPRESENTATION_CONTEXT('','') );
ENDSEC;
END-ISO-10303-21;
