ISO-10303-21;
HEADER;
FILE_DESCRIPTION((''),'2;1');
FILE_NAME('band_cyl','2026-01-01T00:00:00',(''),(''),'','','');
FILE_SCHEMA(('AUTOMOTIVE_DESIGN { 1 0 10303 214 1 1 1 1 }'));
ENDSEC;
DATA;
#1 = CARTESIAN_POINT('',(0.,0.,0.));
#2 = DIRECTION('',(1.,0.,0.));
#3 = DIRECTION('',(0.,0.,1.));
#4 = AXIS2_PLACEMENT_3D('',#1,#2,#3);
#5 = CYLINDRICAL_SURFACE('',#4,300.0);
#6 = CARTESIAN_POINT('',(0.0,0.0,300.0));
#7 = VERTEX_POINT('',#6);
#8 = CARTESIAN_POINT('',(30.0,0.0,300.0));
#9 = VERTEX_POINT('',#8);
#10 = CARTESIAN_POINT('',(30.0,149.99999999999997,259.8076211353316));
#11 = VERTEX_POINT('',#10);
#12 = CARTESIAN_POINT('',(0.0,149.99999999999997,259.8076211353316));
#13 = VERTEX_POINT('',#12);
#14 = DIRECTION('',(1.0,0.0,0.0));
#15 = VECTOR('',#14,30.0);
#16 = CARTESIAN_POINT('',(0.0,0.0,300.0));
#17 = LINE('',#16,#15);
#18 = EDGE_CURVE('',#7,#9,#17,.T.);
#19 = CARTESIAN_POINT('',(30.0,0.,0.));
#20 = DIRECTION('',(-1.,0.,0.));
#21 = DIRECTION('',(0.,0.,1.));
#22 = AXIS2_PLACEMENT_3D('',#19,#20,#21);
#23 = CIRCLE('',#22,300.0);
#24 = EDGE_CURVE('',#9,#11,#23,.T.);
#25 = DIRECTION('',(-1.0,0.0,0.0));
#26 = VECTOR('',#25,30.0);
#27 = CARTESIAN_POINT('',(30.0,149.99999999999997,259.8076211353316));
#28 = LINE('',#27,#26);
#29 = EDGE_CURVE('',#11,#13,#28,.T.);
#30 = CARTESIAN_POINT('',(0.0,0.,0.));
#31 = DIRECTION('',(-1.,0.,0.));
#32 = DIRECTION('',(0.,0.,1.));
#33 = AXIS2_PLACEMENT_3D('',#30,#31,#32);
#34 = CIRCLE('',#33,300.0);
#35 = EDGE_CURVE('',#7,#13,#34,.T.);
#36 = ORIENTED_EDGE('',*,*,#18,.T.);
#37 = ORIENTED_EDGE('',*,*,#24,.T.);
#38 = ORIENTED_EDGE('',*,*,#29,.T.);
#39 = ORIENTED_EDGE('',*,*,#35,.F.);
#40 = EDGE_LOOP('',(#36,#37,#38,#39));
#41 = FACE_OUTER_BOUND('',#40,.T.);
#42 = ADVANCED_FACE('',(#41),#5,.T.);
#43 = CARTESIAN_POINT('',(45.0,0.0,300.0));
#44 = VERTEX_POINT('',#43);
#45 = CARTESIAN_POINT('',(80.0,0.0,300.0));
#46 = VERTEX_POINT('',#45);
#47 = CARTESIAN_POINT('',(80.0,149.99999999999997,259.8076211353316));
#48 = VERTEX_POINT('',#47);
#49 = CARTESIAN_POINT('',(45.0,149.99999999999997,259.8076211353316));
#50 = VERTEX_POINT('',#49);
#51 = DIRECTION('',(1.0,0.0,0.0));
#52 = VECTOR('',#51,35.0);
#53 = CARTESIAN_POINT('',(45.0,0.0,300.0));
#54 = LINE('',#53,#52);
#55 = EDGE_CURVE('',#44,#46,#54,.T.);
#56 = CARTESIAN_POINT('',(80.0,0.,0.));
#57 = DIRECTION('',(-1.,0.,0.));
#58 = DIRECTION('',(0.,0.,1.));
#59 = AXIS2_PLACEMENT_3D('',#56,#57,#58);
#60 = CIRCLE('',#59,300.0);
#61 = EDGE_CURVE('',#46,#48,#60,.T.);
#62 = DIRECTION('',(-1.0,0.0,0.0));
#63 = VECTOR('',#62,35.0);
#64 = CARTESIAN_POINT('',(80.0,149.99999999999997,259.8076211353316));
#65 = LINE('',#64,#63);
#66 = EDGE_CURVE('',#48,#50,#65,.T.);
#67 = CARTESIAN_POINT('',(45.0,0.,0.));
#68 = DIRECTION('',(-1.,0.,0.));
#69 = DIRECTION('',(0.,0.,1.));
#70 = AXIS2_PLACEMENT_3D('',#67,#68,#69);
#71 = CIRCLE('',#70,300.0);
#72 = EDGE_CURVE('',#44,#50,#71,.T.);
#73 = ORIENTED_EDGE('',*,*,#55,.T.);
#74 = ORIENTED_EDGE('',*,*,#61,.T.);
#75 = ORIENTED_EDGE('',*,*,#66,.T.);
#76 = ORIENTED_EDGE('',*,*,#72,.F.);
#77 = EDGE_LOOP('',(#73,#74,#75,#76));
#78 = FACE_OUTER_BOUND('',#77,.T.);
#79 = ADVANCED_FACE('',(#78),#5,.T.);
#80 = CARTESIAN_POINT('',(95.0,0.0,300.0));
#81 = VERTEX_POINT('',#80);
#82 = CARTESIAN_POINT('',(140.0,0.0,300.0));
#83 = VERTEX_POINT('',#82);
#84 = CARTESIAN_POINT('',(140.0,149.99999999999997,259.8076211353316));
#85 = VERTEX_POINT('',#84);
#86 = CARTESIAN_POINT('',(95.0,149.99999999999997,259.8076211353316));
#87 = VERTEX_POINT('',#86);
#88 = DIRECTION('',(1.0,0.0,0.0));
#89 = VECTOR('',#88,45.0);
#90 = CARTESIAN_POINT('',(95.0,0.0,300.0));
#91 = LINE('',#90,#89);
#92 = EDGE_CURVE('',#81,#83,#91,.T.);
#93 = CARTESIAN_POINT('',(140.0,0.,0.));
#94 = DIRECTION('',(-1.,0.,0.));
#95 = DIRECTION('',(0.,0.,1.));
#96 = AXIS2_PLACEMENT_3D('',#93,#94,#95);
#97 = CIRCLE('',#96,300.0);
#98 = EDGE_CURVE('',#83,#85,#97,.T.);
#99 = DIRECTION('',(-1.0,0.0,0.0));
#100 = VECTOR('',#99,45.0);
#101 = CARTESIAN_POINT('',(140.0,149.99999999999997,259.8076211353316));
#102 = LINE('',#101,#100);
#103 = EDGE_CURVE('',#85,#87,#102,.T.);
#104 = CARTESIAN_POINT('',(95.0,0.,0.));
#105 = DIRECTION('',(-1.,0.,0.));
#106 = DIRECTION('',(0.,0.,1.));
#107 = AXIS2_PLACEMENT_3D('',#104,#105,#106);
#108 = CIRCLE('',#107,300.0);
#109 = EDGE_CURVE('',#81,#87,#108,.T.);
#110 = ORIENTED_EDGE('',*,*,#92,.T.);
#111 = ORIENTED_EDGE('',*,*,#98,.T.);
#112 = ORIENTED_EDGE('',*,*,#103,.T.);
#113 = ORIENTED_EDGE('',*,*,#109,.F.);
#114 = EDGE_LOOP('',(#110,#111,#112,#113));
#115 = FACE_OUTER_BOUND('',#114,.T.);
#116 = ADVANCED_FACE('',(#115),#5,.T.);
#117 = CARTESIAN_POINT('',(152.0,0.0,300.0));
#118 = VERTEX_POINT('',#117);
#119 = CARTESIAN_POINT('',(200.0,0.0,300.0));
#120 = VERTEX_POINT('',#119);
#121 = CARTESIAN_POINT('',(200.0,149.99999999999997,259.8076211353316));
#122 = VERTEX_POINT('',#121);
#123 = CARTESIAN_POINT('',(152.0,149.99999999999997,259.8076211353316));
#124 = VERTEX_POINT('',#123);
#125 = DIRECTION('',(1.0,0.0,0.0));
#126 = VECTOR('',#125,48.0);
#127 = CARTESIAN_POINT('',(152.0,0.0,300.0));
#128 = LINE('',#127,#126);
#129 = EDGE_CURVE('',#118,#120,#128,.T.);
#130 = CARTESIAN_POINT('',(200.0,0.,0.));
#131 = DIRECTION('',(-1.,0.,0.));
#132 = DIRECTION('',(0.,0.,1.));
#133 = AXIS2_PLACEMENT_3D('',#130,#131,#132);
#134 = CIRCLE('',#133,300.0);
#135 = EDGE_CURVE('',#120,#122,#134,.T.);
#136 = DIRECTION('',(-1.0,0.0,0.0));
#137 = VECTOR('',#136,48.0);
#138 = CARTESIAN_POINT('',(200.0,149.99999999999997,259.8076211353316));
#139 = LINE('',#138,#137);
#140 = EDGE_CURVE('',#122,#124,#139,.T.);
#141 = CARTESIAN_POINT('',(152.0,0.,0.));
#142 = DIRECTION('',(-1.,0.,0.));
#143 = DIRECTION('',(0.,0.,1.));
#144 = AXIS2_PLACEMENT_3D('',#141,#142,#143);
#145 = CIRCLE('',#144,300.0);
#146 = EDGE_CURVE('',#118,#124,#145,.T.);
#147 = ORIENTED_EDGE('',*,*,#129,.T.);
#148 = ORIENTED_EDGE('',*,*,#135,.T.);
#149 = ORIENTED_EDGE('',*,*,#140,.T.);
#150 = ORIENTED_EDGE('',*,*,#146,.F.);
#151 = EDGE_LOOP('',(#147,#148,#149,#150));
#152 = FACE_OUTER_BOUND('',#151,.T.);
#153 = ADVANCED_FACE('',(#152),#5,.T.);
#154 = OPEN_SHELL('',(#42,#79,#116,#153));
#155 = SHELL_BASED_SURFACE_MODEL('band_cyl',(#154));
#156 = ( LENGTH_UNIT() NAMED_UNIT(*) SI_UNIT(.MILLI.,.METRE.) );
#157 = ( NAMED_UNIT(*) PLANE_ANGLE_UNIT() SI_UNIT($,.RADIAN.) );
#158 = ( NAMED_UNIT(*) SI_UNIT($,.STERADIAN.) SOLID_ANGLE_UNIT() );
#159 = UNCERTAINTY_MEASURE_WITH_UNIT(LENGTH_MEASURE(1.E-07),#156,'distance_accuracy_value','confusion accuracy');
#160 = ( GEOMETRIC_REPRESENTATION_CONTEXT(3) GLOBAL_UNCERTAINTY_ASSIGNED_CONTEXT((#159)) GLOBAL_UNIT_ASSIGNED_CONTEXT((#156,#157,#158)) REPRESENTATION_CONTEXT('','') );
ENDSEC;
END-ISO-10303-21;
