0
SECTION
2
ENTITIES
0
LINE
8
TREAD
10
3.0
20
-102
11
57.0
21
-102
0
LINE
8
TREAD
10
57.0
20
-102
11
57.0
21
-56
0
LINE
8
TREAD
10
57.0
20
-56
11
3.0
21
-56
0
LINE
8
TREAD
10
3.0
20
-56
11
3.0
21
-102
0
LINE
8
TREAD
10
63.0
20
-102
11
117.0
21
-102
0
LINE
8
TREAD
10
117.0
20
-102
11
117.0
21
-56
0
LINE
8
TREAD
10
117.0
20
-56
11
63.0
21
-56
0
LINE
8
TREAD
10
63.0
20
-56
11
63.0
21
-102
0
LINE
8
TREAD
10
123.0
20
-102
11
177.0
21
-102
0
LINE
8
TREAD
10
177.0
20
-102
11
177.0
21
-56
0
LINE
8
TREAD
10
177.0
20
-56
11
123.0
21
-56
0
LINE
8
TREAD
10
123.0
20
-56
11
123.0
21
-102
0
LINE
8
TREAD
10
183.0
20
-102
11
237.0
21
-102
0
LINE
8
TREAD
10
237.0
20
-102
11
237.0
21
-56
0
LINE
8
TREAD
10
237.0
20
-56
11
183.0
21
-56
0
LINE
8
TREAD
10
183.0
20
-56
11
183.0
21
-102
0
LINE
8
TREAD
10
243.0
20
-102
11
297.0
21
-102
0
LINE
8
TREAD
10
297.0
20
-102
11
297.0
21
-56
0
LINE
8
TREAD
10
297.0
20
-56
11
243.0
21
-56
0
LINE
8
TREAD
10
243.0
20
-56
11
243.0
21
-102
0
LINE
8
TREAD
10
303.0
20
-102
11
357.0
21
-102
0
LINE
8
TREAD
10
357.0
20
-102
11
357.0
21
-56
0
LINE
8
TREAD
10
357.0
20
-56
11
303.0
21
-56
0
LINE
8
TREAD
10
303.0
20
-56
11
303.0
21
-102
0
LINE
8
TREAD
10
363.0
20
-102
11
417.0
21
-102
0
LINE
8
TREAD
10
417.0
20
-102
11
417.0
21
-56
0
LINE
8
TREAD
10
417.0
20
-56
11
363.0
21
-56
0
LINE
8
TREAD
10
363.0
20
-56
11
363.0
21
-102
0
LINE
8
TREAD
10
423.0
20
-102
11
477.0
21
-102
0
LINE
8
TREAD
10
477.0
20
-102
11
477.0
21
-56
0
LINE
8
TREAD
10
477.0
20
-56
11
423.0
21
-56
0
LINE
8
TREAD
10
423.0
20
-56
11
423.0
21
-102
0
LINE
8
TREAD
10
483.0
20
-102
11
537.0
21
-102
0
LINE
8
TREAD
10
537.0
20
-102
11
537.0
21
-56
0
LINE
8
TREAD
10
537.0
20
-56
11
483.0
21
-56
0
LINE
8
TREAD
10
483.0
20
-56
11
483.0
21
-102
0
LINE
8
TREAD
10
543.0
20
-102
11
597.0
21
-102
0
LINE
8
TREAD
10
597.0
20
-102
11
597.0
21
-56
0
LINE
8
TREAD
10
597.0
20
-56
11
543.0
21
-56
0
LINE
8
TREAD
10
543.0
20
-56
11
543.0
21
-102
0
LINE
8
TREAD
10
603.0
20
-102
11
657.0
21
-102
0
LINE
8
TREAD
10
657.0
20
-102
11
657.0
21
-56
0
LINE
8
TREAD
10
657.0
20
-56
11
603.0
21
-56
0
LINE
8
TREAD
10
603.0
20
-56
11
603.0
21
-102
0
LINE
8
TREAD
10
663.0
20
-102
11
717.0
21
-102
0
LINE
8
TREAD
10
717.0
20
-102
11
717.0
21
-56
0
LINE
8
TREAD
10
717.0
20
-56
11
663.0
21
-56
0
LINE
8
TREAD
10
663.0
20
-56
11
663.0
21
-102
0
LINE
8
TREAD
10
723.0
20
-102
11
777.0
21
-102
0
LINE
8
TREAD
10
777.0
20
-102
11
777.0
21
-56
0
LINE
8
TREAD
10
777.0
20
-56
11
723.0
21
-56
0
LINE
8
TREAD
10
723.0
20
-56
11
723.0
21
-102
0
LINE
8
TREAD
10
783.0
20
-102
11
837.0
21
-102
0
LINE
8
TREAD
10
837.0
20
-102
11
837.0
21
-56
0
LINE
8
TREAD
10
837.0
20
-56
11
783.0
21
-56
0
LINE
8
TREAD
10
783.0
20
-56
11
783.0
21
-102
0
LINE
8
TREAD
10
843.0
20
-102
11
897.0
21
-102
0
LINE
8
TREAD
10
897.0
20
-102
11
897.0
21
-56
0
LINE
8
TREAD
10
897.0
20
-56
11
843.0
21
-56
0
LINE
8
TREAD
10
843.0
20
-56
11
843.0
21
-102
0
LINE
8
TREAD
10
903.0
20
-102
11
957.0
21
-102
0
LINE
8
TREAD
10
957.0
20
-102
11
957.0
21
-56
0
LINE
8
TREAD
10
957.0
20
-56
11
903.0
21
-56
0
LINE
8
TREAD
10
903.0
20
-56
11
903.0
21
-102
0
LINE
8
TREAD
10
963.0
20
-102
11
1017.0
21
-102
0
LINE
8
TREAD
10
1017.0
20
-102
11
1017.0
21
-56
0
LINE
8
TREAD
10
1017.0
20
-56
11
963.0
21
-56
0
LINE
8
TREAD
10
963.0
20
-56
11
963.0
21
-102
0
LINE
8
TREAD
10
1023.0
20
-102
11
1077.0
21
-102
0
LINE
8
TREAD
10
1077.0
20
-102
11
1077.0
21
-56
0
LINE
8
TREAD
10
1077.0
20
-56
11
1023.0
21
-56
0
LINE
8
TREAD
10
1023.0
20
-56
11
1023.0
21
-102
0
LINE
8
TREAD
10
1083.0
20
-102
11
1137.0
21
-102
0
LINE
8
TREAD
10
1137.0
20
-102
11
1137.0
21
-56
0
LINE
8
TREAD
10
1137.0
20
-56
11
1083.0
21
-56
0
LINE
8
TREAD
10
1083.0
20
-56
11
1083.0
21
-102
0
LINE
8
TREAD
10
1143.0
20
-102
11
1197.0
21
-102
0
LINE
8
TREAD
10
1197.0
20
-102
11
1197.0
21
-56
0
LINE
8
TREAD
10
1197.0
20
-56
11
1143.0
21
-56
0
LINE
8
TREAD
10
1143.0
20
-56
11
1143.0
21
-102
0
LINE
8
TREAD
10
3.0
20
-52
11
57.0
21
-52
0
LINE
8
TREAD
10
57.0
20
-52
11
57.0
21
-6
0
LINE
8
TREAD
10
57.0
20
-6
11
3.0
21
-6
0
LINE
8
TREAD
10
3.0
20
-6
11
3.0
21
-52
0
LINE
8
TREAD
10
63.0
20
-52
11
117.0
21
-52
0
LINE
8
TREAD
10
117.0
20
-52
11
117.0
21
-6
0
LINE
8
TREAD
10
117.0
20
-6
11
63.0
21
-6
0
LINE
8
TREAD
10
63.0
20
-6
11
63.0
21
-52
0
LINE
8
TREAD
10
123.0
20
-52
11
177.0
21
-52
0
LINE
8
TREAD
10
177.0
20
-52
11
177.0
21
-6
0
LINE
8
TREAD
10
177.0
20
-6
11
123.0
21
-6
0
LINE
8
TREAD
10
123.0
20
-6
11
123.0
21
-52
0
LINE
8
TREAD
10
183.0
20
-52
11
237.0
21
-52
0
LINE
8
TREAD
10
237.0
20
-52
11
237.0
21
-6
0
LINE
8
TREAD
10
237.0
20
-6
11
183.0
21
-6
0
LINE
8
TREAD
10
183.0
20
-6
11
183.0
21
-52
0
LINE
8
TREAD
10
243.0
20
-52
11
297.0
21
-52
0
LINE
8
TREAD
10
297.0
20
-52
11
297.0
21
-6
0
LINE
8
TREAD
10
297.0
20
-6
11
243.0
21
-6
0
LINE
8
TREAD
10
243.0
20
-6
11
243.0
21
-52
0
LINE
8
TREAD
10
303.0
20
-52
11
357.0
21
-52
0
LINE
8
TREAD
10
357.0
20
-52
11
357.0
21
-6
0
LINE
8
TREAD
10
357.0
20
-6
11
303.0
21
-6
0
LINE
8
TREAD
10
303.0
20
-6
11
303.0
21
-52
0
LINE
8
TREAD
10
363.0
20
-52
11
417.0
21
-52
0
LINE
8
TREAD
10
417.0
20
-52
11
417.0
21
-6
0
LINE
8
TREAD
10
417.0
20
-6
11
363.0
21
-6
0
LINE
8
TREAD
10
363.0
20
-6
11
363.0
21
-52
0
LINE
8
TREAD
10
423.0
20
-52
11
477.0
21
-52
0
LINE
8
TREAD
10
477.0
20
-52
11
477.0
21
-6
0
LINE
8
TREAD
10
477.0
20
-6
11
423.0
21
-6
0
LINE
8
TREAD
10
423.0
20
-6
11
423.0
21
-52
0
LINE
8
TREAD
10
483.0
20
-52
11
537.0
21
-52
0
LINE
8
TREAD
10
537.0
20
-52
11
537.0
21
-6
0
LINE
8
TREAD
10
537.0
20
-6
11
483.0
21
-6
0
LINE
8
TREAD
10
483.0
20
-6
11
483.0
21
-52
0
LINE
8
TREAD
10
543.0
20
-52
11
597.0
21
-52
0
LINE
8
TREAD
10
597.0
20
-52
11
597.0
21
-6
0
LINE
8
TREAD
10
597.0
20
-6
11
543.0
21
-6
0
LINE
8
TREAD
10
543.0
20
-6
11
543.0
21
-52
0
LINE
8
TREAD
10
603.0
20
-52
11
657.0
21
-52
0
LINE
8
TREAD
10
657.0
20
-52
11
657.0
21
-6
0
LINE
8
TREAD
10
657.0
20
-6
11
603.0
21
-6
0
LINE
8
TREAD
10
603.0
20
-6
11
603.0
21
-52
0
LINE
8
TREAD
10
663.0
20
-52
11
717.0
21
-52
0
LINE
8
TREAD
10
717.0
20
-52
11
717.0
21
-6
0
LINE
8
TREAD
10
717.0
20
-6
11
663.0
21
-6
0
LINE
8
TREAD
10
663.0
20
-6
11
663.0
21
-52
0
LINE
8
TREAD
10
723.0
20
-52
11
777.0
21
-52
0
LINE
8
TREAD
10
777.0
20
-52
11
777.0
21
-6
0
LINE
8
TREAD
10
777.0
20
-6
11
723.0
21
-6
0
LINE
8
TREAD
10
723.0
20
-6
11
723.0
21
-52
0
LINE
8
TREAD
10
783.0
20
-52
11
837.0
21
-52
0
LINE
8
TREAD
10
837.0
20
-52
11
837.0
21
-6
0
LINE
8
TREAD
10
837.0
20
-6
11
783.0
21
-6
0
LINE
8
TREAD
10
783.0
20
-6
11
783.0
21
-52
0
LINE
8
TREAD
10
843.0
20
-52
11
897.0
21
-52
0
LINE
8
TREAD
10
897.0
20
-52
11
897.0
21
-6
0
LINE
8
TREAD
10
897.0
20
-6
11
843.0
21
-6
0
LINE
8
TREAD
10
843.0
20
-6
11
843.0
21
-52
0
LINE
8
TREAD
10
903.0
20
-52
11
957.0
21
-52
0
LINE
8
TREAD
10
957.0
20
-52
11
957.0
21
-6
0
LINE
8
TREAD
10
957.0
20
-6
11
903.0
21
-6
0
LINE
8
TREAD
10
903.0
20
-6
11
903.0
21
-52
0
LINE
8
TREAD
10
963.0
20
-52
11
1017.0
21
-52
0
LINE
8
TREAD
10
1017.0
20
-52
11
1017.0
21
-6
0
LINE
8
TREAD
10
1017.0
20
-6
11
963.0
21
-6
0
LINE
8
TREAD
10
963.0
20
-6
11
963.0
21
-52
0
LINE
8
TREAD
10
1023.0
20
-52
11
1077.0
21
-52
0
LINE
8
TREAD
10
1077.0
20
-52
11
1077.0
21
-6
0
LINE
8
TREAD
10
1077.0
20
-6
11
1023.0
21
-6
0
LINE
8
TREAD
10
1023.0
20
-6
11
1023.0
21
-52
0
LINE
8
TREAD
10
1083.0
20
-52
11
1137.0
21
-52
0
LINE
8
TREAD
10
1137.0
20
-52
11
1137.0
21
-6
0
LINE
8
TREAD
10
1137.0
20
-6
11
1083.0
21
-6
0
LINE
8
TREAD
10
1083.0
20
-6
11
1083.0
21
-52
0
LINE
8
TREAD
10
1143.0
20
-52
11
1197.0
21
-52
0
LINE
8
TREAD
10
1197.0
20
-52
11
1197.0
21
-6
0
LINE
8
TREAD
10
1197.0
20
-6
11
1143.0
21
-6
0
LINE
8
TREAD
10
1143.0
20
-6
11
1143.0
21
-52
0
LINE
8
TREAD
10
57.0
20
-36.0
11
63.0
21
-36.0
0
LINE
8
TREAD
10
57.0
20
-22.0
11
63.0
21
-22.0
0
LINE
8
TREAD
10
117.0
20
-36.0
11
123.0
21
-36.0
0
LINE
8
TREAD
10
117.0
20
-22.0
11
123.0
21
-22.0
0
LINE
8
TREAD
10
177.0
20
-36.0
11
183.0
21
-36.0
0
LINE
8
TREAD
10
177.0
20
-22.0
11
183.0
21
-22.0
0
LINE
8
TREAD
10
237.0
20
-36.0
11
243.0
21
-36.0
0
LINE
8
TREAD
10
237.0
20
-22.0
11
243.0
21
-22.0
0
LINE
8
TREAD
10
297.0
20
-36.0
11
303.0
21
-36.0
0
LINE
8
TREAD
10
297.0
20
-22.0
11
303.0
21
-22.0
0
LINE
8
TREAD
10
357.0
20
-36.0
11
363.0
21
-36.0
0
LINE
8
TREAD
10
357.0
20
-22.0
11
363.0
21
-22.0
0
LINE
8
TREAD
10
417.0
20
-36.0
11
423.0
21
-36.0
0
LINE
8
TREAD
10
417.0
20
-22.0
11
423.0
21
-22.0
0
LINE
8
TREAD
10
477.0
20
-36.0
11
483.0
21
-36.0
0
LINE
8
TREAD
10
477.0
20
-22.0
11
483.0
21
-22.0
0
LINE
8
TREAD
10
537.0
20
-36.0
11
543.0
21
-36.0
0
LINE
8
TREAD
10
537.0
20
-22.0
11
543.0
21
-22.0
0
LINE
8
TREAD
10
597.0
20
-36.0
11
603.0
21
-36.0
0
LINE
8
TREAD
10
597.0
20
-22.0
11
603.0
21
-22.0
0
LINE
8
TREAD
10
657.0
20
-36.0
11
663.0
21
-36.0
0
LINE
8
TREAD
10
657.0
20
-22.0
11
663.0
21
-22.0
0
LINE
8
TREAD
10
717.0
20
-36.0
11
723.0
21
-36.0
0
LINE
8
TREAD
10
717.0
20
-22.0
11
723.0
21
-22.0
0
LINE
8
TREAD
10
777.0
20
-36.0
11
783.0
21
-36.0
0
LINE
8
TREAD
10
777.0
20
-22.0
11
783.0
21
-22.0
0
LINE
8
TREAD
10
837.0
20
-36.0
11
843.0
21
-36.0
0
LINE
8
TREAD
10
837.0
20
-22.0
11
843.0
21
-22.0
0
LINE
8
TREAD
10
897.0
20
-36.0
11
903.0
21
-36.0
0
LINE
8
TREAD
10
897.0
20
-22.0
11
903.0
21
-22.0
0
LINE
8
TREAD
10
957.0
20
-36.0
11
963.0
21
-36.0
0
LINE
8
TREAD
10
957.0
20
-22.0
11
963.0
21
-22.0
0
LINE
8
TREAD
10
1017.0
20
-36.0
11
1023.0
21
-36.0
0
LINE
8
TREAD
10
1017.0
20
-22.0
11
1023.0
21
-22.0
0
LINE
8
TREAD
10
1077.0
20
-36.0
11
1083.0
21
-36.0
0
LINE
8
TREAD
10
1077.0
20
-22.0
11
1083.0
21
-22.0
0
LINE
8
TREAD
10
1137.0
20
-36.0
11
1143.0
21
-36.0
0
LINE
8
TREAD
10
1137.0
20
-22.0
11
1143.0
21
-22.0
0
LINE
8
TREAD
10
3.0
20
6
11
57.0
21
6
0
LINE
8
TREAD
10
57.0
20
6
11
57.0
21
52
0
LINE
8
TREAD
10
57.0
20
52
11
3.0
21
52
0
LINE
8
TREAD
10
3.0
20
52
11
3.0
21
6
0
LINE
8
TREAD
10
63.0
20
6
11
117.0
21
6
0
LINE
8
TREAD
10
117.0
20
6
11
117.0
21
52
0
LINE
8
TREAD
10
117.0
20
52
11
63.0
21
52
0
LINE
8
TREAD
10
63.0
20
52
11
63.0
21
6
0
LINE
8
TREAD
10
123.0
20
6
11
177.0
21
6
0
LINE
8
TREAD
10
177.0
20
6
11
177.0
21
52
0
LINE
8
TREAD
10
177.0
20
52
11
123.0
21
52
0
LINE
8
TREAD
10
123.0
20
52
11
123.0
21
6
0
LINE
8
TREAD
10
183.0
20
6
11
237.0
21
6
0
LINE
8
TREAD
10
237.0
20
6
11
237.0
21
52
0
LINE
8
TREAD
10
237.0
20
52
11
183.0
21
52
0
LINE
8
TREAD
10
183.0
20
52
11
183.0
21
6
0
LINE
8
TREAD
10
243.0
20
6
11
297.0
21
6
0
LINE
8
TREAD
10
297.0
20
6
11
297.0
21
52
0
LINE
8
TREAD
10
297.0
20
52
11
243.0
21
52
0
LINE
8
TREAD
10
243.0
20
52
11
243.0
21
6
0
LINE
8
TREAD
10
303.0
20
6
11
357.0
21
6
0
LINE
8
TREAD
10
357.0
20
6
11
357.0
21
52
0
LINE
8
TREAD
10
357.0
20
52
11
303.0
21
52
0
LINE
8
TREAD
10
303.0
20
52
11
303.0
21
6
0
LINE
8
TREAD
10
363.0
20
6
11
417.0
21
6
0
LINE
8
TREAD
10
417.0
20
6
11
417.0
21
52
0
LINE
8
TREAD
10
417.0
20
52
11
363.0
21
52
0
LINE
8
TREAD
10
363.0
20
52
11
363.0
21
6
0
LINE
8
TREAD
10
423.0
20
6
11
477.0
21
6
0
LINE
8
TREAD
10
477.0
20
6
11
477.0
21
52
0
LINE
8
TREAD
10
477.0
20
52
11
423.0
21
52
0
LINE
8
TREAD
10
423.0
20
52
11
423.0
21
6
0
LINE
8
TREAD
10
483.0
20
6
11
537.0
21
6
0
LINE
8
TREAD
10
537.0
20
6
11
537.0
21
52
0
LINE
8
TREAD
10
537.0
20
52
11
483.0
21
52
0
LINE
8
TREAD
10
483.0
20
52
11
483.0
21
6
0
LINE
8
TREAD
10
543.0
20
6
11
597.0
21
6
0
LINE
8
TREAD
10
597.0
20
6
11
597.0
21
52
0
LINE
8
TREAD
10
597.0
20
52
11
543.0
21
52
0
LINE
8
TREAD
10
543.0
20
52
11
543.0
21
6
0
LINE
8
TREAD
10
603.0
20
6
11
657.0
21
6
0
LINE
8
TREAD
10
657.0
20
6
11
657.0
21
52
0
LINE
8
TREAD
10
657.0
20
52
11
603.0
21
52
0
LINE
8
TREAD
10
603.0
20
52
11
603.0
21
6
0
LINE
8
TREAD
10
663.0
20
6
11
717.0
21
6
0
LINE
8
TREAD
10
717.0
20
6
11
717.0
21
52
0
LINE
8
TREAD
10
717.0
20
52
11
663.0
21
52
0
LINE
8
TREAD
10
663.0
20
52
11
663.0
21
6
0
LINE
8
TREAD
10
723.0
20
6
11
777.0
21
6
0
LINE
8
TREAD
10
777.0
20
6
11
777.0
21
52
0
LINE
8
TREAD
10
777.0
20
52
11
723.0
21
52
0
LINE
8
TREAD
10
723.0
20
52
11
723.0
21
6
0
LINE
8
TREAD
10
783.0
20
6
11
837.0
21
6
0
LINE
8
TREAD
10
837.0
20
6
11
837.0
21
52
0
LINE
8
TREAD
10
837.0
20
52
11
783.0
21
52
0
LINE
8
TREAD
10
783.0
20
52
11
783.0
21
6
0
LINE
8
TREAD
10
843.0
20
6
11
897.0
21
6
0
LINE
8
TREAD
10
897.0
20
6
11
897.0
21
52
0
LINE
8
TREAD
10
897.0
20
52
11
843.0
21
52
0
LINE
8
TREAD
10
843.0
20
52
11
843.0
21
6
0
LINE
8
TREAD
10
903.0
20
6
11
957.0
21
6
0
LINE
8
TREAD
10
957.0
20
6
11
957.0
21
52
0
LINE
8
TREAD
10
957.0
20
52
11
903.0
21
52
0
LINE
8
TREAD
10
903.0
20
52
11
903.0
21
6
0
LINE
8
TREAD
10
963.0
20
6
11
1017.0
21
6
0
LINE
8
TREAD
10
1017.0
20
6
11
1017.0
21
52
0
LINE
8
TREAD
10
1017.0
20
52
11
963.0
21
52
0
LINE
8
TREAD
10
963.0
20
52
11
963.0
21
6
0
LINE
8
TREAD
10
1023.0
20
6
11
1077.0
21
6
0
LINE
8
TREAD
10
1077.0
20
6
11
1077.0
21
52
0
LINE
8
TREAD
10
1077.0
20
52
11
1023.0
21
52
0
LINE
8
TREAD
10
1023.0
20
52
11
1023.0
21
6
0
LINE
8
TREAD
10
1083.0
20
6
11
1137.0
21
6
0
LINE
8
TREAD
10
1137.0
20
6
11
1137.0
21
52
0
LINE
8
TREAD
10
1137.0
20
52
11
1083.0
21
52
0
LINE
8
TREAD
10
1083.0
20
52
11
1083.0
21
6
0
LINE
8
TREAD
10
1143.0
20
6
11
1197.0
21
6
0
LINE
8
TREAD
10
1197.0
20
6
11
1197.0
21
52
0
LINE
8
TREAD
10
1197.0
20
52
11
1143.0
21
52
0
LINE
8
TREAD
10
1143.0
20
52
11
1143.0
21
6
0
LINE
8
TREAD
10
57.0
20
22.0
11
63.0
21
22.0
0
LINE
8
TREAD
10
57.0
20
36.0
11
63.0
21
36.0
0
LINE
8
TREAD
10
117.0
20
22.0
11
123.0
21
22.0
0
LINE
8
TREAD
10
117.0
20
36.0
11
123.0
21
36.0
0
LINE
8
TREAD
10
177.0
20
22.0
11
183.0
21
22.0
0
LINE
8
TREAD
10
177.0
20
36.0
11
183.0
21
36.0
0
LINE
8
TREAD
10
237.0
20
22.0
11
243.0
21
22.0
0
LINE
8
TREAD
10
237.0
20
36.0
11
243.0
21
36.0
0
LINE
8
TREAD
10
297.0
20
22.0
11
303.0
21
22.0
0
LINE
8
TREAD
10
297.0
20
36.0
11
303.0
21
36.0
0
LINE
8
TREAD
10
357.0
20
22.0
11
363.0
21
22.0
0
LINE
8
TREAD
10
357.0
20
36.0
11
363.0
21
36.0
0
LINE
8
TREAD
10
417.0
20
22.0
11
423.0
21
22.0
0
LINE
8
TREAD
10
417.0
20
36.0
11
423.0
21
36.0
0
LINE
8
TREAD
10
477.0
20
22.0
11
483.0
21
22.0
0
LINE
8
TREAD
10
477.0
20
36.0
11
483.0
21
36.0
0
LINE
8
TREAD
10
537.0
20
22.0
11
543.0
21
22.0
0
LINE
8
TREAD
10
537.0
20
36.0
11
543.0
21
36.0
0
LINE
8
TREAD
10
597.0
20
22.0
11
603.0
21
22.0
0
LINE
8
TREAD
10
597.0
20
36.0
11
603.0
21
36.0
0
LINE
8
TREAD
10
657.0
20
22.0
11
663.0
21
22.0
0
LINE
8
TREAD
10
657.0
20
36.0
11
663.0
21
36.0
0
LINE
8
TREAD
10
717.0
20
22.0
11
723.0
21
22.0
0
LINE
8
TREAD
10
717.0
20
36.0
11
723.0
21
36.0
0
LINE
8
TREAD
10
777.0
20
22.0
11
783.0
21
22.0
0
LINE
8
TREAD
10
777.0
20
36.0
11
783.0
21
36.0
0
LINE
8
TREAD
10
837.0
20
22.0
11
843.0
21
22.0
0
LINE
8
TREAD
10
837.0
20
36.0
11
843.0
21
36.0
0
LINE
8
TREAD
10
897.0
20
22.0
11
903.0
21
22.0
0
LINE
8
TREAD
10
897.0
20
36.0
11
903.0
21
36.0
0
LINE
8
TREAD
10
957.0
20
22.0
11
963.0
21
22.0
0
LINE
8
TREAD
10
957.0
20
36.0
11
963.0
21
36.0
0
LINE
8
TREAD
10
1017.0
20
22.0
11
1023.0
21
22.0
0
LINE
8
TREAD
10
1017.0
20
36.0
11
1023.0
21
36.0
0
LINE
8
TREAD
10
1077.0
20
22.0
11
1083.0
21
22.0
0
LINE
8
TREAD
10
1077.0
20
36.0
11
1083.0
21
36.0
0
LINE
8
TREAD
10
1137.0
20
22.0
11
1143.0
21
22.0
0
LINE
8
TREAD
10
1137.0
20
36.0
11
1143.0
21
36.0
0
LINE
8
TREAD
10
3.0
20
56
11
57.0
21
56
0
LINE
8
TREAD
10
57.0
20
56
11
57.0
21
102
0
LINE
8
TREAD
10
57.0
20
102
11
3.0
21
102
0
LINE
8
TREAD
10
3.0
20
102
11
3.0
21
56
0
LINE
8
TREAD
10
63.0
20
56
11
117.0
21
56
0
LINE
8
TREAD
10
117.0
20
56
11
117.0
21
102
0
LINE
8
TREAD
10
117.0
20
102
11
63.0
21
102
0
LINE
8
TREAD
10
63.0
20
102
11
63.0
21
56
0
LINE
8
TREAD
10
123.0
20
56
11
177.0
21
56
0
LINE
8
TREAD
10
177.0
20
56
11
177.0
21
102
0
LINE
8
TREAD
10
177.0
20
102
11
123.0
21
102
0
LINE
8
TREAD
10
123.0
20
102
11
123.0
21
56
0
LINE
8
TREAD
10
183.0
20
56
11
237.0
21
56
0
LINE
8
TREAD
10
237.0
20
56
11
237.0
21
102
0
LINE
8
TREAD
10
237.0
20
102
11
183.0
21
102
0
LINE
8
TREAD
10
183.0
20
102
11
183.0
21
56
0
LINE
8
TREAD
10
243.0
20
56
11
297.0
21
56
0
LINE
8
TREAD
10
297.0
20
56
11
297.0
21
102
0
LINE
8
TREAD
10
297.0
20
102
11
243.0
21
102
0
LINE
8
TREAD
10
243.0
20
102
11
243.0
21
56
0
LINE
8
TREAD
10
303.0
20
56
11
357.0
21
56
0
LINE
8
TREAD
10
357.0
20
56
11
357.0
21
102
0
LINE
8
TREAD
10
357.0
20
102
11
303.0
21
102
0
LINE
8
TREAD
10
303.0
20
102
11
303.0
21
56
0
LINE
8
TREAD
10
363.0
20
56
11
417.0
21
56
0
LINE
8
TREAD
10
417.0
20
56
11
417.0
21
102
0
LINE
8
TREAD
10
417.0
20
102
11
363.0
21
102
0
LINE
8
TREAD
10
363.0
20
102
11
363.0
21
56
0
LINE
8
TREAD
10
423.0
20
56
11
477.0
21
56
0
LINE
8
TREAD
10
477.0
20
56
11
477.0
21
102
0
LINE
8
TREAD
10
477.0
20
102
11
423.0
21
102
0
LINE
8
TREAD
10
423.0
20
102
11
423.0
21
56
0
LINE
8
TREAD
10
483.0
20
56
11
537.0
21
56
0
LINE
8
TREAD
10
537.0
20
56
11
537.0
21
102
0
LINE
8
TREAD
10
537.0
20
102
11
483.0
21
102
0
LINE
8
TREAD
10
483.0
20
102
11
483.0
21
56
0
LINE
8
TREAD
10
543.0
20
56
11
597.0
21
56
0
LINE
8
TREAD
10
597.0
20
56
11
597.0
21
102
0
LINE
8
TREAD
10
597.0
20
102
11
543.0
21
102
0
LINE
8
TREAD
10
543.0
20
102
11
543.0
21
56
0
LINE
8
TREAD
10
603.0
20
56
11
657.0
21
56
0
LINE
8
TREAD
10
657.0
20
56
11
657.0
21
102
0
LINE
8
TREAD
10
657.0
20
102
11
603.0
21
102
0
LINE
8
TREAD
10
603.0
20
102
11
603.0
21
56
0
LINE
8
TREAD
10
663.0
20
56
11
717.0
21
56
0
LINE
8
TREAD
10
717.0
20
56
11
717.0
21
102
0
LINE
8
TREAD
10
717.0
20
102
11
663.0
21
102
0
LINE
8
TREAD
10
663.0
20
102
11
663.0
21
56
0
LINE
8
TREAD
10
723.0
20
56
11
777.0
21
56
0
LINE
8
TREAD
10
777.0
20
56
11
777.0
21
102
0
LINE
8
TREAD
10
777.0
20
102
11
723.0
21
102
0
LINE
8
TREAD
10
723.0
20
102
11
723.0
21
56
0
LINE
8
TREAD
10
783.0
20
56
11
837.0
21
56
0
LINE
8
TREAD
10
837.0
20
56
11
837.0
21
102
0
LINE
8
TREAD
10
837.0
20
102
11
783.0
21
102
0
LINE
8
TREAD
10
783.0
20
102
11
783.0
21
56
0
LINE
8
TREAD
10
843.0
20
56
11
897.0
21
56
0
LINE
8
TREAD
10
897.0
20
56
11
897.0
21
102
0
LINE
8
TREAD
10
897.0
20
102
11
843.0
21
102
0
LINE
8
TREAD
10
843.0
20
102
11
843.0
21
56
0
LINE
8
TREAD
10
903.0
20
56
11
957.0
21
56
0
LINE
8
TREAD
10
957.0
20
56
11
957.0
21
102
0
LINE
8
TREAD
10
957.0
20
102
11
903.0
21
102
0
LINE
8
TREAD
10
903.0
20
102
11
903.0
21
56
0
LINE
8
TREAD
10
963.0
20
56
11
1017.0
21
56
0
LINE
8
TREAD
10
1017.0
20
56
11
1017.0
21
102
0
LINE
8
TREAD
10
1017.0
20
102
11
963.0
21
102
0
LINE
8
TREAD
10
963.0
20
102
11
963.0
21
56
0
LINE
8
TREAD
10
1023.0
20
56
11
1077.0
21
56
0
LINE
8
TREAD
10
1077.0
20
56
11
1077.0
21
102
0
LINE
8
TREAD
10
1077.0
20
102
11
1023.0
21
102
0
LINE
8
TREAD
10
1023.0
20
102
11
1023.0
21
56
0
LINE
8
TREAD
10
1083.0
20
56
11
1137.0
21
56
0
LINE
8
TREAD
10
1137.0
20
56
11
1137.0
21
102
0
LINE
8
TREAD
10
1137.0
20
102
11
1083.0
21
102
0
LINE
8
TREAD
10
1083.0
20
102
11
1083.0
21
56
0
LINE
8
TREAD
10
1143.0
20
56
11
1197.0
21
56
0
LINE
8
TREAD
10
1197.0
20
56
11
1197.0
21
102
0
LINE
8
TREAD
10
1197.0
20
102
11
1143.0
21
102
0
LINE
8
TREAD
10
1143.0
20
102
11
1143.0
21
56
0
ENDSEC
0
EOF
